<svg width="28" height="28" viewBox="0 0 28 28" fill="none" xmlns="http://www.w3.org/2000/svg">
  <defs>
    <clipPath id="clip0_162_763">
      <rect width="28" height="28" />
    </clipPath>
  </defs>
  <g clip-path="url(#clip0_162_763)">
    <path
      d="M12.3615 14.463C12.7984 14.8671 13.381 15.0692 14.0364 15.0692C14.619 15.0692 15.2016 14.8671 15.6385 14.463L27.29 3.68731C28.2367 2.87913 28.2367 1.46482 27.29 0.656645C26.4161 -0.218882 24.8869 -0.218882 24.013 0.656645L14.0364 9.88334L3.987 0.656645C3.11313 -0.218882 1.58388 -0.218882 0.710013 0.656645C-0.236671 1.46482 -0.236671 2.87913 0.710013 3.68731L12.3615 14.463ZM24.013 13.5875L14.0364 22.8142L3.987 13.5875C3.11313 12.712 1.58388 12.712 0.710013 13.5875C-0.236671 14.3957 -0.236671 15.81 0.710013 16.6182L12.3615 27.3939C12.7984 27.798 13.381 28 14.0364 28C14.619 28 15.2016 27.798 15.6385 27.3939L27.29 16.6182C28.2367 15.81 28.2367 14.3957 27.29 13.5875C26.4161 12.712 24.8869 12.712 24.013 13.5875Z"
      fill="#4F4F4F"
    />
  </g>
</svg>
