<svg width="256" height="256" viewBox="0 0 256 256" fill="none" xmlns="http://www.w3.org/2000/svg">
<rect width="256" height="256" rx="20" fill="#F9EBAC"/>
<path d="M92.8867 214C83.6867 214 75.3534 211.733 67.8867 207.2C60.5534 202.667 54.7534 196.133 50.4867 187.6C46.2201 178.933 44.0867 168.733 44.0867 157C44.0867 136.733 48.4201 118 57.0867 100.8C65.7534 83.4667 78.5534 69.6 95.4867 59.2C112.42 48.6667 132.753 43.4 156.487 43.4C162.62 43.4 169.153 43.8667 176.087 44.8C183.153 45.7333 189.553 47.1333 195.287 49C199.02 50.0667 200.887 52.7333 200.887 57C200.887 60.4667 199.553 63.7333 196.887 66.8C194.353 69.8667 191.353 71.4 187.887 71.4C186.82 71.4 186.02 71.3333 185.487 71.2C178.553 69.6 172.62 68.4667 167.687 67.8C162.753 67 157.553 66.6 152.087 66.6C135.153 66.6 120.753 70.7333 108.887 79C97.0201 87.1333 88.1534 97.9333 82.2867 111.4C76.4201 124.867 73.4867 139.4 73.4867 155C73.4867 166.333 75.6867 175.133 80.0867 181.4C84.6201 187.533 90.4867 190.6 97.6867 190.6C105.82 190.6 112.953 187.267 119.087 180.6C125.22 173.933 130.82 163.133 135.887 148.2C140.953 133.267 145.953 113 150.887 87.4C151.687 83.6667 153.287 81.1333 155.687 79.8C158.087 78.4667 161.287 77.8 165.287 77.8C174.753 77.8 179.487 80.8667 179.487 87C179.487 88.0667 179.287 89.4 178.887 91C175.42 103.933 172.22 118.267 169.287 134C166.487 149.6 165.087 161.467 165.087 169.6C165.087 176.8 166.153 182.067 168.287 185.4C170.42 188.6 173.687 190.2 178.087 190.2C182.353 190.2 186.42 188.8 190.287 186C194.153 183.067 199.02 178.133 204.887 171.2C206.487 169.333 208.287 168.4 210.287 168.4C212.02 168.4 213.353 169.2 214.287 170.8C215.353 172.4 215.887 174.6 215.887 177.4C215.887 182.6 214.62 186.733 212.087 189.8C205.553 197.667 199.153 203.667 192.887 207.8C186.62 211.933 178.953 214 169.887 214C160.553 214 153.02 211.333 147.287 206C141.553 200.533 137.953 192.867 136.487 183C126.62 203.667 112.087 214 92.8867 214Z" fill="#A78427"/>
</svg>
