<svg width="960" height="35" viewBox="0 0 960 35" fill="none" xmlns="http://www.w3.org/2000/svg">
  <defs>
    <clipPath id="clip0_149_751">
      <rect width="960" height="35"/>
    </clipPath>
  </defs>
  <g clip-path="url(#clip0_149_751)">
    <path
      d="M0 25.4906C27 10.6746 32 22.5274 48 21.0458C64 19.5642 80 11.6623 96 11.8599C112 11.9587 128 20.2556 144 21.5397C160 22.8237 176 17.2924 192 17.2924C208 17.2924 224 22.8237 240 22.8237C256 22.8237 272 17.2924 288 18.5765C304 19.8605 320 28.1575 336 28.4538C352 28.7501 368 21.2434 384 19.2679C400 17.2924 416 20.8483 432 20.2556C448 19.5642 464 14.6255 480 16.601C496 18.5765 512 27.4661 528 27.1698C544 26.7747 560 17.2924 576 10.4771C592 3.76048 608 -0.190476 624 0.00707422C640 0.105874 656 4.45189 672 11.4648C688 18.5765 704 28.4538 720 29.7379C736 31.1207 752 23.8115 768 21.0458C784 18.2802 800 19.8605 816 23.7127C832 27.4661 848 33.3925 864 30.133C880 26.7747 896 14.3292 912 13.3415C928 12.3538 944 30.133 960 25.4906V35H0V25.4906Z"
      fill="#000000"
    />
  </g>
</svg>
