<svg width="960" height="32" viewBox="0 0 960 32" fill="none" xmlns="http://www.w3.org/2000/svg">
  <defs>
    <clipPath id="clip0_154_755">
      <rect width="960" height="32"/>
    </clipPath>
  </defs>
  <g clip-path="url(#clip0_154_755)">
    <path
      d="M0 0V25.4902C27 10.6742 32 22.5265 48 21.0449C64 19.5633 80 11.6618 96 11.8594C112 11.9582 128 20.255 144 21.5391C160 22.8231 176 17.293 192 17.293C208 17.293 224 22.8242 240 22.8242C256 22.8242 272 17.2921 288 18.5762C304 19.8602 320 28.1568 336 28.4531C352 28.7494 368 21.2431 384 19.2676C400 17.2921 416 20.8486 432 20.2559C448 19.5645 464 14.6261 480 16.6016C496 18.5771 512 27.4662 528 27.1699C544 26.7748 560 17.2919 576 10.4766C592 3.75993 608 -0.189737 624 0.0078125C640 0.106612 656 4.45192 672 11.4648C688 18.5765 704 28.4542 720 29.7383C736 31.1211 752 23.8106 768 21.0449C784 18.2793 800 19.8607 816 23.7129C832 27.4663 848 33.3923 864 30.1328C880 26.7745 896 14.3295 912 13.3418C928 12.3541 944 30.1326 960 25.4902V0H0Z"
      fill="#F9EBAC"
    />
  </g>
</svg>
