<svg width="575" height="376" viewBox="0 0 575 376" fill="none" xmlns="http://www.w3.org/2000/svg">
<path d="M446.051 232.434C445.59 232.455 445.134 232.334 444.745 232.087C444.355 231.841 444.05 231.48 443.872 231.054C443.694 230.629 443.652 230.159 443.75 229.708C443.848 229.257 444.082 228.848 444.421 228.534L444.575 227.922C444.555 227.872 444.534 227.823 444.514 227.774C444.049 226.678 443.272 225.743 442.278 225.087C441.284 224.431 440.118 224.084 438.928 224.088C437.737 224.092 436.574 224.449 435.585 225.112C434.596 225.775 433.825 226.716 433.369 227.816C431.546 232.206 429.226 236.604 428.654 241.246C428.403 243.298 428.509 245.377 428.968 247.393C424.687 238.054 422.464 227.903 422.449 217.629C422.448 215.051 422.592 212.475 422.878 209.913C423.115 207.813 423.444 205.727 423.865 203.657C426.159 192.423 431.086 181.893 438.24 172.933C441.702 171.044 444.503 168.138 446.263 164.608C446.901 163.339 447.352 161.985 447.601 160.587C447.211 160.638 446.129 154.689 446.423 154.324C445.879 153.498 444.905 153.088 444.31 152.281C441.354 148.273 437.28 148.973 435.153 154.42C430.611 156.713 430.567 160.516 433.354 164.173C435.128 166.5 435.371 169.648 436.927 172.139C436.767 172.344 436.601 172.542 436.441 172.747C433.514 176.51 430.964 180.551 428.826 184.812C429.346 180.038 428.725 175.21 427.015 170.724C425.282 166.542 422.033 163.021 419.173 159.406C415.736 155.065 408.69 156.96 408.085 162.463C408.079 162.517 408.073 162.57 408.068 162.623C408.493 162.863 408.908 163.117 409.315 163.387C409.827 163.728 410.223 164.216 410.452 164.787C410.681 165.357 410.733 165.984 410.6 166.584C410.467 167.185 410.155 167.731 409.707 168.151C409.258 168.572 408.693 168.847 408.085 168.94L408.023 168.95C408.174 170.481 408.442 171.999 408.823 173.49C405.153 187.683 413.076 192.853 424.39 193.085C424.639 193.213 424.883 193.341 425.132 193.463C422.984 199.551 421.637 205.892 421.124 212.327C420.834 216.124 420.851 219.938 421.175 223.732L421.156 223.598C420.336 219.379 418.086 215.572 414.785 212.82C409.882 208.793 402.954 207.309 397.665 204.072C397.103 203.711 396.449 203.518 395.781 203.517C395.113 203.515 394.459 203.704 393.895 204.063C393.331 204.421 392.881 204.933 392.599 205.538C392.316 206.144 392.213 206.817 392.3 207.479C392.307 207.527 392.315 207.574 392.322 207.621C393.11 207.942 393.878 208.312 394.621 208.729C395.046 208.968 395.462 209.223 395.869 209.492C396.38 209.833 396.776 210.322 397.005 210.892C397.234 211.463 397.286 212.089 397.153 212.69C397.02 213.29 396.708 213.836 396.26 214.256C395.811 214.677 395.246 214.952 394.638 215.046L394.576 215.055C394.531 215.062 394.493 215.068 394.448 215.074C395.795 218.291 397.686 221.253 400.038 223.828C402.333 236.218 412.188 237.394 422.731 233.786H422.738C423.894 238.812 425.57 243.705 427.739 248.386H445.604C445.668 248.187 445.725 247.982 445.783 247.784C444.129 247.888 442.469 247.789 440.84 247.489C442.165 245.863 443.491 244.223 444.816 242.597C444.846 242.566 444.873 242.534 444.899 242.501C445.572 241.668 446.25 240.842 446.923 240.01L446.923 240.009C446.959 237.457 446.666 234.911 446.052 232.434L446.051 232.434Z" fill="#F2F2F2"/>
<path d="M499.555 278.729H360.316C350.831 278.729 341.735 282.497 335.028 289.205C328.321 295.912 324.553 305.008 324.553 314.493V374.098H335.773V341.208C335.773 331.723 339.54 322.626 346.247 315.919C352.954 309.212 362.05 305.444 371.535 305.444H488.335C497.82 305.444 506.917 309.212 513.623 315.919C520.33 322.626 524.098 331.723 524.098 341.208V374.098H535.317V314.493C535.317 305.008 531.55 295.912 524.843 289.205C518.136 282.497 509.04 278.729 499.555 278.729Z" fill="#F2F2F2"/>
<path d="M430.737 293.956C450.875 293.956 467.2 291.624 467.2 288.747C467.2 285.87 450.875 283.538 430.737 283.538C410.599 283.538 394.274 285.87 394.274 288.747C394.274 291.624 410.599 293.956 430.737 293.956Z" fill="#E6E6E6"/>
<path d="M458.302 290.053H409.734C397.745 278.563 389.173 267.489 396.036 258.297C396.036 255.654 397.085 253.12 398.954 251.252C400.822 249.383 403.356 248.334 405.998 248.334H462.038C464.68 248.334 467.214 249.383 469.082 251.252C470.951 253.12 472 255.654 472 258.297C474.613 268.771 469.945 279.358 458.302 290.053Z" fill="#F2F2F2"/>
<path d="M297.272 118.393C239.325 85.5191 261.497 0.86624 197.843 27.8336C115.186 8.14886 162.169 90.3707 88.7973 118.393C85.4371 118.393 82.1099 119.055 79.0055 120.341C75.9012 121.627 73.0805 123.512 70.7045 125.888C68.3285 128.264 66.4437 131.085 65.1579 134.189C63.872 137.294 63.2101 140.621 63.2101 143.981V143.982C63.2101 147.418 63.9021 150.818 65.2448 153.981C66.5875 157.144 68.5534 160.004 71.0253 162.39C73.4971 164.777 76.4243 166.641 79.6322 167.872C82.84 169.103 86.2629 169.675 89.6966 169.554L99.2725 169.217V249.825H286.797V169.217L296.372 169.554C299.806 169.675 303.229 169.103 306.437 167.872C309.645 166.641 312.572 164.777 315.044 162.39C317.516 160.004 319.482 157.144 320.824 153.981C322.167 150.818 322.859 147.418 322.859 143.982V143.982C322.859 140.621 322.197 137.294 320.911 134.189C319.625 131.085 317.741 128.264 315.365 125.888C312.989 123.512 310.168 121.627 307.063 120.341C303.959 119.055 300.632 118.393 297.272 118.393Z" fill="#E6E6E6"/>
<path d="M279.382 287.492H104.283C102.316 287.492 100.43 288.273 99.0399 289.664C97.6494 291.054 96.8683 292.94 96.8683 294.907V305.723C96.8683 307.689 97.6494 309.575 99.0399 310.966C100.43 312.356 102.316 313.137 104.283 313.137H117.704V375.648H127.321V313.137H252.337V375.648H261.954V313.137H279.382C281.349 313.137 283.234 312.356 284.625 310.965C286.015 309.575 286.796 307.689 286.796 305.723V294.907C286.796 292.94 286.015 291.054 284.625 289.664C283.234 288.273 281.349 287.492 279.382 287.492Z" fill="#E6E6E6"/>
<path d="M315.444 269.861H310.076C311.629 267.182 312.444 264.141 312.441 261.045V158.464C312.441 153.788 310.583 149.304 307.277 145.997C303.971 142.691 299.486 140.833 294.81 140.833C290.135 140.833 285.65 142.691 282.344 145.997C279.037 149.304 277.18 153.788 277.18 158.464V243.249C145.197 224.711 231.209 224.898 112.095 243.84V158.464C112.095 153.788 110.237 149.304 106.931 145.997C103.624 142.691 99.1401 140.833 94.4642 140.833C89.7883 140.833 85.3039 142.691 81.9975 145.997C78.6912 149.304 76.8337 153.788 76.8337 158.464V261.045C76.8303 264.141 77.646 267.182 79.1982 269.861H68.2204C66.2539 269.861 64.3681 270.642 62.9776 272.033C61.5871 273.423 60.806 275.309 60.806 277.276V288.091C60.806 290.058 61.5871 291.944 62.9776 293.334C64.3681 294.725 66.2539 295.506 68.2204 295.506H315.444C317.411 295.506 319.297 294.725 320.687 293.334C322.078 291.944 322.859 290.058 322.859 288.091V277.276C322.859 275.309 322.078 273.423 320.687 272.033C319.297 270.642 317.411 269.861 315.444 269.861Z" fill="#F2F2F2"/>
<path d="M66.4544 165.096C69.5688 165.38 72.6712 164.438 75.1014 162.469C77.5315 160.501 79.0977 157.662 79.4667 154.556C79.5318 153.924 79.5444 153.287 79.5044 152.652L152.92 116.328L135.085 95.0156L66.1992 141.99C63.5811 142.359 61.1589 143.585 59.3107 145.476C57.4625 147.367 56.2923 149.817 55.9826 152.443C55.6557 155.464 56.5424 158.491 58.4475 160.859C60.3526 163.226 63.1201 164.74 66.1411 165.067C66.2454 165.078 66.3498 165.088 66.4544 165.096Z" fill="#FFB6B6"/>
<path d="M227.778 99.1765C227.778 99.1765 234.907 85.0297 212.646 79.8964C190.385 74.763 149.285 92.0487 147.193 94.0231C145.102 95.9976 147.819 93.3157 141.205 92.2874C138.029 91.7937 131.69 86.4205 130.388 90.9419C129.086 95.4633 129.446 100.893 125.637 96.4977C121.828 92.1023 136.838 134.079 136.838 134.079C136.838 134.079 138.775 133.768 145.642 130.127C149.498 128.082 149.539 119.592 152.119 121.967C154.699 124.342 177.639 123.939 178.929 123.626C180.218 123.313 185.998 112.67 185.998 112.67L227.778 99.1765Z" fill="#2F2E41"/>
<path d="M108.478 362.433L96.2561 359.884L100.265 311.528L118.305 315.288L108.478 362.433Z" fill="#FFB6B6"/>
<path d="M106.251 375.273L68.666 367.439L68.7651 366.964C69.5738 363.084 71.8906 359.684 75.2057 357.512C78.5209 355.341 82.5629 354.575 86.4428 355.383L86.4437 355.383L94.3945 351.605L106.118 359.484L109.399 360.168L106.251 375.273Z" fill="#2F2E41"/>
<path d="M318.917 306.384L331.082 303.574L326.033 255.315L308.08 259.461L318.917 306.384Z" fill="#FFB6B6"/>
<path d="M321.419 319.174L358.827 310.534L358.718 310.061C357.826 306.2 355.437 302.85 352.076 300.75C348.715 298.65 344.657 297.971 340.796 298.863L340.795 298.863L332.764 295.257L321.213 303.386L317.947 304.14L321.419 319.174Z" fill="#2F2E41"/>
<path d="M175.404 195.329L173.306 219.064C173.306 219.064 105.174 197.183 104.345 248.654C104.081 265.052 96.8683 328.364 96.8683 328.364L117.704 331.57C117.704 331.57 128.924 314.74 128.924 309.13C128.924 303.52 140.143 262.648 140.143 262.648L198.618 256.897C260.351 253.031 279.584 251.428 293.208 207.35C293.208 207.35 301.514 266.324 306.176 270.897C310.838 275.471 314.289 270.924 308.557 276.804C302.824 282.683 298.817 280.279 302.824 282.683C306.831 285.088 330.873 281.081 330.873 281.081C336.242 281.683 329.357 195.751 311.363 170.391C295.307 147.761 239.907 218.873 239.907 218.873L175.404 195.329Z" fill="#2F2E41"/>
<path d="M247.596 94.3656C247.596 94.3656 268.422 92.0017 272.858 101.983C277.294 111.964 288.472 132.746 288.472 132.746C288.472 132.746 282.74 135.188 288.594 128.844C291.218 126 286.376 127.735 289.703 126.626C293.03 125.517 294.139 126.626 294.139 126.626L305.228 145.479C305.228 145.479 304.336 149.775 298.575 149.914C292.813 150.054 301.902 144.37 294.139 152.132C290.131 156.141 275.577 161.67 275.577 161.67L238.375 127.48L247.596 94.3656Z" fill="#2F2E41"/>
<path d="M181.924 84.2386L202.972 78.784L212.798 65.2322L236.131 68.1008L241.098 86.5857L257.71 96.2285C257.71 96.2285 248.529 193.345 250.713 198.677C252.897 204.01 247.597 208.471 240.909 215.345C234.221 222.219 246.466 214.549 248.018 222.033C249.57 229.517 260.882 237.437 248.018 237.358C235.153 237.28 164.392 240.852 166.609 231.98C168.827 223.108 161.928 220.68 165.272 215.117C168.616 209.555 170.867 212.663 169.742 204.455C168.616 196.247 169.725 190.702 169.725 186.266C169.725 181.83 173.441 141.52 173.441 141.52L181.924 84.2386Z" fill="#00B0FF"/>
<path d="M257.544 237.525C261.558 244.689 238.946 246.796 214.45 245.831C213.976 244.017 213.192 242.299 212.132 240.752C209.426 236.826 212.697 210.266 208.75 207.582C210.535 211.907 203.316 240.652 201.808 245.077C179.651 243.303 159.457 239.277 159.701 234.486C159.767 233.089 164.392 206.473 166.632 204.455C168.861 202.436 166.609 164.331 166.632 156.158C166.643 147.974 178.808 87.8108 178.808 85.5928C178.808 83.3748 207.641 72.2849 207.641 72.2849L219.839 142.151L238.381 76.4547C240.194 78.9198 242.289 81.1641 244.624 83.1419C248.339 86.236 263.088 98.9007 263.088 98.9007L250.457 192.367C250.457 192.367 256.435 206.473 256.124 212.073C256.004 216.517 255.13 220.908 253.54 225.06C251.744 230.327 251.932 227.5 257.544 237.525Z" fill="#2F2E41"/>
<path d="M277.384 44.3972C279.694 46.5046 281.092 49.4305 281.278 52.5524C281.465 55.6743 280.426 58.7458 278.382 61.1133C277.959 61.588 277.498 62.0268 277.002 62.4254L299.719 141.125L271.955 142.337L260.156 59.7972C258.662 57.6152 257.933 55.0001 258.082 52.3601C258.231 49.7201 259.25 47.2037 260.979 45.2035C261.974 44.0748 263.182 43.1532 264.533 42.4912C265.884 41.8292 267.352 41.4399 268.854 41.3454C270.356 41.2509 271.861 41.4531 273.285 41.9405C274.708 42.4279 276.022 43.1909 277.151 44.1859C277.229 44.2553 277.307 44.3257 277.384 44.3972Z" fill="#FFB6B6"/>
<path d="M267.583 135.623C268.469 134.916 296.099 125.946 296.099 125.946C296.099 125.946 307.833 143.404 300.742 149.054C293.651 154.704 278.16 156.176 278.16 156.176C278.16 156.176 271.652 152.514 271.805 148.198C271.958 143.882 267.583 135.623 267.583 135.623Z" fill="#2F2E41"/>
<path d="M250.486 54.7278L253.49 32.6085C253.906 29.5414 256.001 27.5273 258.16 28.119L263.529 29.5907C265.688 30.1824 267.106 33.1593 266.689 36.2264L263.686 58.3456C263.269 61.4128 261.174 63.4268 259.015 62.8351L253.646 61.3635C251.487 60.7718 250.07 57.7949 250.486 54.7278Z" fill="#3F3D56"/>
<path d="M251.974 53.443L255.035 33.2094C255.46 30.4037 256.987 28.6229 258.44 29.2398L262.054 30.7741C263.507 31.391 264.343 34.1757 263.919 36.9813L260.858 57.215C260.433 60.0206 258.906 61.8014 257.453 61.1845L253.84 59.6502C252.387 59.0333 251.55 56.2486 251.974 53.443Z" fill="#00B0FF"/>
<path d="M194.866 32.4268C196.953 49.2701 208.624 63.1576 225.595 63.1576C229.631 63.1576 233.627 62.3627 237.355 60.8183C241.083 59.274 244.471 57.0104 247.325 54.1568C250.178 51.3031 252.442 47.9154 253.986 44.187C255.53 40.4585 256.325 36.4624 256.325 32.4268C256.325 15.4546 242.494 3.26513 225.595 1.69598C207.665 0.0310097 192.186 10.8021 194.866 32.4268Z" fill="#2F2E41"/>
<path d="M228.992 64.9823C244.042 64.9823 256.242 52.7817 256.242 37.7315C256.242 22.6813 244.042 10.4807 228.992 10.4807C213.943 10.4807 201.743 22.6813 201.743 37.7315C201.743 52.7817 213.943 64.9823 228.992 64.9823Z" fill="#FFB6B6"/>
<path d="M200.775 40.7004C201.638 46.622 206.685 54.8838 205.503 54.8838C204.321 54.8838 195.918 30.4725 204.321 28.8808C210.416 27.7263 211.779 28.739 217.476 26.2687L216.672 27.0252C220.442 29.7673 225.69 28.0771 229.992 26.2923C234.306 24.5194 239.542 22.8292 243.324 25.5596C245.7 27.2734 246.704 30.2519 248.182 32.7813C249.659 35.3225 252.389 37.7218 255.202 36.9418C257.46 36.3153 258.76 33.7859 258.748 31.4457C258.736 29.1054 255.689 26.8791 256.715 24.7794C259.756 18.5571 257.021 14.3159 250.392 11.3879C247.981 11.0215 245.57 10.6472 243.159 10.2651C244.422 8.51501 245.954 6.9753 247.697 5.70274C246.799 3.87066 245.771 2.02681 244.033 1.01034C242.107 -0.136117 239.719 -0.053435 237.485 0.0647977C232.498 0.324793 227.514 0.584806 222.534 0.844849C218.847 1.03398 215.029 1.25857 211.732 2.94876C207.619 5.06443 204.924 9.18945 202.962 13.3854C198.565 22.8174 199.262 30.4056 200.775 40.7004Z" fill="#2F2E41"/>
</svg>
