<svg width="394" height="376" viewBox="0 0 394 376" fill="none" xmlns="http://www.w3.org/2000/svg">
<g clip-path="url(#clip0_32_670)">
<path d="M366.083 99.8947V78.7834H362.798V99.8947C361.856 100.276 361.076 100.972 360.591 101.865C360.107 102.758 359.948 103.791 360.142 104.788C360.336 105.785 360.871 106.684 361.655 107.33C362.44 107.976 363.424 108.329 364.44 108.329C365.457 108.329 366.441 107.976 367.226 107.33C368.01 106.684 368.545 105.785 368.739 104.788C368.933 103.791 368.774 102.758 368.29 101.865C367.805 100.972 367.025 100.276 366.083 99.8947Z" fill="#E6E6E6"/>
<path d="M373.746 312.946H351.303V40.4861H342.545V312.946H320.101C317.442 312.946 314.808 313.469 312.351 314.487C309.893 315.504 307.66 316.995 305.78 318.875C303.899 320.755 302.407 322.986 301.389 325.442C300.371 327.898 299.848 330.53 299.848 333.189V333.189H394V333.189C394 330.53 393.476 327.898 392.458 325.442C391.44 322.986 389.949 320.755 388.068 318.875C386.187 316.995 383.954 315.504 381.497 314.487C379.04 313.469 376.406 312.946 373.746 312.946Z" fill="#E6E6E6"/>
<path d="M299.893 80.972H393.955L388.203 9.11464C387.992 6.63685 386.862 4.3274 385.034 2.64062C383.206 0.953846 380.812 0.0118668 378.324 0H315.523C313.035 0.0118682 310.642 0.953847 308.814 2.64062C306.986 4.3274 305.855 6.63685 305.645 9.11464L299.893 80.972Z" fill="#00B0FF"/>
<path d="M33.4447 250.321H320.543V221.026C320.543 141.915 256.147 77.5525 176.994 77.5525C97.8409 77.5525 33.4447 141.915 33.4447 221.026V250.321Z" fill="#3F3D56"/>
<path opacity="0.2" d="M33.4447 250.321H320.543V221.026C320.543 141.915 256.147 77.5525 176.994 77.5525C97.8409 77.5525 33.4447 141.915 33.4447 221.026V250.321Z" fill="black"/>
<path d="M70.6538 260.462H291.601C291.391 248.844 286.629 237.772 278.339 229.625C270.049 221.478 258.892 216.907 247.265 216.895H114.99C103.363 216.907 92.2063 221.478 83.9159 229.625C75.6256 237.772 70.8638 248.844 70.6538 260.462Z" fill="#00B0FF"/>
<path d="M44.3424 255.955C68.832 255.955 88.6848 236.113 88.6848 211.636C88.6848 187.16 68.832 167.317 44.3424 167.317C19.8528 167.317 0 187.16 0 211.636C0 236.113 19.8528 255.955 44.3424 255.955Z" fill="#3F3D56"/>
<path d="M313.403 255.955C337.893 255.955 357.746 236.113 357.746 211.636C357.746 187.16 337.893 167.317 313.403 167.317C288.913 167.317 269.061 187.16 269.061 211.636C269.061 236.113 288.913 255.955 313.403 255.955Z" fill="#3F3D56"/>
<path d="M279.958 234.171V250.697H75.1566V234.171H29.3111V314.718C29.3111 319.653 31.2726 324.386 34.764 327.876C38.2555 331.365 42.9909 333.326 47.9286 333.326H307.186C309.631 333.326 312.052 332.844 314.311 331.909C316.57 330.974 318.622 329.604 320.351 327.876C322.08 326.148 323.451 324.096 324.387 321.839C325.322 319.581 325.804 317.162 325.804 314.718V234.171H279.958Z" fill="#3F3D56"/>
<path opacity="0.2" d="M44.3424 220.65C49.3233 220.65 53.3612 216.614 53.3612 211.636C53.3612 206.658 49.3233 202.622 44.3424 202.622C39.3615 202.622 35.3236 206.658 35.3236 211.636C35.3236 216.614 39.3615 220.65 44.3424 220.65Z" fill="black"/>
<path opacity="0.2" d="M313.403 220.65C318.384 220.65 322.422 216.614 322.422 211.636C322.422 206.658 318.384 202.622 313.403 202.622C308.422 202.622 304.384 206.658 304.384 211.636C304.384 216.614 308.422 220.65 313.403 220.65Z" fill="black"/>
<path d="M193.329 72.4899C193.329 72.4899 194.215 89.3269 200.422 92.8716C206.628 96.4162 200.422 120.343 200.422 120.343L171.163 121.229L169.39 92.8716C169.39 92.8716 172.936 81.3515 171.163 76.0345C169.39 70.7176 193.329 72.4899 193.329 72.4899Z" fill="#FFB8B8"/>
<path d="M226.134 306.436L215.495 318.843L232.341 334.793L241.207 317.07L226.134 306.436Z" fill="#FFB8B8"/>
<path d="M150.77 306.436L161.41 318.843L144.564 334.793L135.698 317.07L150.77 306.436Z" fill="#FFB8B8"/>
<path d="M220.371 189.02C220.371 189.02 284.208 210.288 280.662 230.67C277.115 251.051 249.63 322.83 249.63 322.83C249.63 322.83 234.557 322.83 223.031 306.879L231.011 289.156C231.011 289.156 227.464 279.408 233.67 277.636C239.877 275.864 243.423 244.848 243.423 244.848C243.423 244.848 198.205 241.303 188.452 224.466L170.72 181.931L220.371 189.02Z" fill="#2F2E41"/>
<path d="M156.534 189.02C156.534 189.02 92.6962 210.288 96.2427 230.67C99.7892 251.051 127.275 322.83 127.275 322.83C127.275 322.83 142.347 322.83 153.874 306.879L145.894 289.156C145.894 289.156 149.441 279.408 143.234 277.636C137.028 275.864 133.481 244.848 133.481 244.848C133.481 244.848 178.699 241.303 188.452 224.466L206.185 181.931L156.534 189.02Z" fill="#2F2E41"/>
<path d="M229.237 328.147C229.237 328.147 238.104 320.172 238.99 326.375C239.877 332.578 238.103 357.391 238.103 357.391C238.103 357.391 246.97 376 233.67 376C220.371 376 214.165 361.821 215.938 347.643C217.711 333.464 209.731 328.147 209.731 328.147C209.731 328.147 199.978 308.652 209.731 306.879C219.484 305.107 223.031 309.538 223.031 309.538C223.031 309.538 219.484 325.489 229.237 328.147Z" fill="#2F2E41"/>
<path d="M147.667 328.147C147.667 328.147 138.801 320.172 137.914 326.375C137.028 332.578 138.801 357.391 138.801 357.391C138.801 357.391 129.935 376 143.234 376C156.534 376 162.74 361.821 160.967 347.643C159.193 333.464 167.173 328.147 167.173 328.147C167.173 328.147 176.926 308.652 167.173 306.879C157.42 305.107 153.874 309.538 153.874 309.538C153.874 309.538 157.42 325.489 147.667 328.147Z" fill="#2F2E41"/>
<path d="M179.586 82.6806C190.848 82.6806 199.978 73.5554 199.978 62.2989C199.978 51.0424 190.848 41.9172 179.586 41.9172C168.323 41.9172 159.193 51.0424 159.193 62.2989C159.193 73.5554 168.323 82.6806 179.586 82.6806Z" fill="#FFB8B8"/>
<path d="M182.689 97.3025L170.276 87.5547L140.131 101.733L139.244 182.374C139.244 182.374 120.625 191.236 125.945 202.756C125.945 202.756 141.904 206.3 148.997 213.39C156.09 220.479 195.989 210.731 212.835 205.414C229.681 200.097 234.114 193.894 234.114 193.894L217.268 169.968L227.021 108.823L196.879 88.568L182.689 97.3025Z" fill="#E6E6E6"/>
<path d="M204.378 48.4267C203.934 47.8241 203.528 47.1943 203.162 46.5409C202.53 45.0017 203.529 43.1878 202.596 41.7506C201.643 40.2834 199.224 39.9739 197.579 38.9772C195.044 37.4417 194.583 34.4287 192.208 32.7366C190.497 31.5174 188.056 31.1888 185.77 31.2583C183.483 31.3279 181.227 31.7411 178.939 31.7864C175.851 31.8553 172.787 31.2291 169.974 29.9541L171.662 33.2536C169.787 32.8451 167.995 32.1192 166.364 31.1074C165.618 32.0328 166.983 33.4373 166.137 34.3053C165.79 34.5853 165.379 34.7756 164.941 34.8594C161.686 35.7839 158.621 37.2785 155.888 39.2736C155.256 39.6757 154.732 40.2279 154.365 40.8809C153.925 41.8553 154.315 42.9314 154.282 43.9674C154.221 45.8498 152.783 47.4913 151.763 49.1871C150.743 50.8829 150.192 53.0814 151.705 54.5207C152.073 54.813 152.426 55.1241 152.762 55.4526C154.279 57.2401 151.595 59.8579 152.888 61.7548C153.45 62.5783 154.601 62.9951 155.602 63.4817C157.518 64.3773 159.131 65.8137 160.241 67.6139L159.463 61.9085C159.422 61.7675 159.415 61.6189 159.442 61.4746C159.469 61.3303 159.529 61.1943 159.618 61.0774C159.994 60.6937 160.783 60.8467 161.303 60.5926C161.875 60.313 161.918 59.6716 161.896 59.1344L161.721 54.9921C161.642 53.1294 161.62 52.8821 162.993 51.3786C163.952 50.3282 165.46 49.6944 166.975 49.2283C170.438 48.1632 174.162 47.7948 177.843 47.4347C182.117 47.0166 186.931 44.9436 190.25 47.1446C192.968 48.9464 193.871 51.9079 195.181 54.5344C196.357 56.8952 199.378 63.8462 201.893 60.0836C203.472 57.7206 205.887 51.0577 204.378 48.4267Z" fill="#2F2E41"/>
<path d="M183.087 56.3865C183.003 56.3866 182.922 56.4199 182.863 56.4793C182.803 56.5386 182.77 56.6191 182.77 56.703V65.2364C182.77 65.3203 182.803 65.4008 182.863 65.4602C182.922 65.5195 183.003 65.5529 183.087 65.5529H197.784C197.868 65.5529 197.949 65.5195 198.008 65.4602C198.068 65.4008 198.101 65.3203 198.101 65.2364V56.703C198.101 56.6191 198.068 56.5386 198.008 56.4793C197.949 56.4199 197.868 56.3865 197.784 56.3865L183.087 56.3865Z" fill="#3F3D56"/>
<path d="M184.729 57.1392C184.573 57.1393 184.423 57.2016 184.312 57.3122C184.201 57.4228 184.139 57.5728 184.139 57.7293V64.2104C184.139 64.3669 184.201 64.5169 184.312 64.6275C184.423 64.7381 184.573 64.8004 184.729 64.8005H196.142C196.298 64.8004 196.448 64.7381 196.559 64.6275C196.67 64.5169 196.732 64.3669 196.732 64.2104V57.7293C196.732 57.5728 196.67 57.4228 196.559 57.3122C196.448 57.2016 196.298 57.1393 196.142 57.1392H184.729Z" fill="#FF6584"/>
<path d="M183.252 59.1975H175.596V60.9698H183.252V59.1975Z" fill="#3F3D56"/>
<path d="M162.274 56.3865C162.19 56.3866 162.11 56.42 162.05 56.4793C161.991 56.5387 161.958 56.6191 161.957 56.703V65.2364C161.958 65.3203 161.991 65.4007 162.05 65.4601C162.11 65.5194 162.19 65.5528 162.274 65.5529H176.972C177.056 65.5528 177.136 65.5194 177.196 65.4601C177.255 65.4007 177.288 65.3203 177.289 65.2364V56.703C177.288 56.6191 177.255 56.5387 177.196 56.4793C177.136 56.42 177.056 56.3866 176.972 56.3865L162.274 56.3865Z" fill="#3F3D56"/>
<path d="M163.917 57.1392C163.76 57.1393 163.61 57.2015 163.499 57.3121C163.389 57.4228 163.326 57.5728 163.326 57.7293V64.2104C163.326 64.3669 163.389 64.5169 163.499 64.6276C163.61 64.7382 163.76 64.8004 163.917 64.8005H175.329C175.486 64.8004 175.636 64.7382 175.747 64.6276C175.857 64.5169 175.92 64.3669 175.92 64.2104V57.7293C175.92 57.5728 175.857 57.4228 175.747 57.3121C175.636 57.2015 175.486 57.1393 175.329 57.1392H163.917Z" fill="#00B0FF"/>
<path d="M154.24 162.901H205.148C207.18 162.901 209.13 163.708 210.567 165.145C212.004 166.581 212.811 168.529 212.811 170.561H146.576C146.576 168.529 147.384 166.581 148.821 165.145C150.258 163.708 152.207 162.901 154.24 162.901Z" fill="#3F3D56"/>
<path d="M208.706 162.354C208.408 162.355 208.112 162.406 207.831 162.503C207.734 162.115 207.498 161.775 207.168 161.548C206.838 161.321 206.437 161.223 206.039 161.272C205.642 161.321 205.276 161.514 205.011 161.814C204.746 162.114 204.6 162.501 204.6 162.901C204.6 162.909 204.603 162.917 204.603 162.925C204.397 162.945 204.195 162.987 203.999 163.05C203.943 162.829 203.842 162.622 203.703 162.442C203.563 162.262 203.387 162.113 203.187 162.005C203.713 161.714 204.129 161.259 204.372 160.709C204.679 160.739 204.99 160.705 205.284 160.607C205.577 160.51 205.847 160.352 206.075 160.143C206.303 159.934 206.485 159.68 206.608 159.396C206.731 159.113 206.793 158.807 206.79 158.497C206.787 158.188 206.718 157.883 206.589 157.602C206.46 157.322 206.274 157.071 206.041 156.867C205.809 156.663 205.536 156.51 205.241 156.419C204.945 156.327 204.634 156.299 204.327 156.336C204.029 156.337 203.733 156.388 203.451 156.485C203.401 156.27 203.307 156.067 203.176 155.889C203.045 155.711 202.879 155.562 202.689 155.449C202.498 155.337 202.287 155.265 202.068 155.237C201.848 155.208 201.626 155.225 201.413 155.285C201.2 155.345 201.002 155.447 200.83 155.586C200.658 155.725 200.515 155.897 200.412 156.093C200.308 156.288 200.245 156.502 200.227 156.722C200.208 156.943 200.235 157.164 200.304 157.374C200.239 157.42 200.178 157.471 200.117 157.522C199.807 157.255 199.405 157.121 198.997 157.149C198.787 156.545 198.37 156.034 197.821 155.706C197.271 155.378 196.624 155.253 195.992 155.355C195.36 155.456 194.783 155.776 194.364 156.259C193.944 156.742 193.708 157.358 193.697 157.998C193.477 158.015 193.26 158.058 193.051 158.126C193.027 158.034 192.996 157.943 192.956 157.856C193.173 157.666 193.346 157.432 193.466 157.17C193.586 156.908 193.649 156.624 193.653 156.336C193.614 155.72 193.334 155.144 192.872 154.734C192.411 154.324 191.806 154.113 191.189 154.148C190.891 154.149 190.595 154.199 190.314 154.297C190.263 154.081 190.17 153.879 190.039 153.701C189.907 153.523 189.742 153.373 189.551 153.261C189.361 153.149 189.149 153.076 188.93 153.048C188.711 153.02 188.488 153.036 188.275 153.096C188.062 153.156 187.864 153.259 187.692 153.398C187.52 153.537 187.378 153.709 187.274 153.904C187.171 154.1 187.108 154.314 187.089 154.534C187.071 154.754 187.097 154.976 187.167 155.186C186.822 155.425 186.537 155.74 186.334 156.107C186.132 156.475 186.016 156.883 185.997 157.302C185.974 157.323 185.947 157.34 185.925 157.362C185.966 157.205 185.988 157.045 185.989 156.883C185.951 156.267 185.67 155.691 185.209 155.281C184.747 154.872 184.142 154.661 183.526 154.695C183.228 154.696 182.932 154.746 182.65 154.844C182.6 154.628 182.506 154.426 182.375 154.248C182.244 154.07 182.078 153.92 181.888 153.808C181.697 153.696 181.486 153.624 181.266 153.595C181.047 153.567 180.824 153.583 180.612 153.643C180.399 153.704 180.2 153.806 180.028 153.945C179.856 154.084 179.714 154.256 179.611 154.451C179.507 154.647 179.444 154.861 179.426 155.081C179.407 155.301 179.434 155.523 179.503 155.733C179.14 155.984 178.843 156.319 178.638 156.71C178.433 157.101 178.325 157.536 178.325 157.977C178.325 158.419 178.433 158.854 178.638 159.245C178.843 159.636 179.14 159.971 179.503 160.222C179.392 160.54 179.392 160.886 179.503 161.204C179.229 161.395 178.992 161.635 178.803 161.911C178.702 161.543 178.475 161.223 178.162 161.005C177.849 160.787 177.469 160.686 177.089 160.719C176.709 160.752 176.353 160.917 176.082 161.185C175.811 161.453 175.642 161.807 175.605 162.187C175.386 162.058 175.149 161.963 174.902 161.903C175.345 161.61 175.694 161.195 175.907 160.709C176.215 160.739 176.525 160.705 176.819 160.607C177.112 160.51 177.382 160.352 177.61 160.143C177.838 159.934 178.02 159.68 178.143 159.396C178.266 159.113 178.328 158.807 178.325 158.497C178.322 158.188 178.254 157.883 178.125 157.602C177.996 157.322 177.809 157.071 177.577 156.867C177.344 156.663 177.071 156.51 176.776 156.419C176.481 156.327 176.169 156.299 175.862 156.336C175.564 156.337 175.268 156.388 174.987 156.485C174.936 156.27 174.842 156.067 174.711 155.889C174.58 155.711 174.414 155.562 174.224 155.449C174.033 155.337 173.822 155.265 173.603 155.237C173.384 155.208 173.161 155.225 172.948 155.285C172.735 155.345 172.537 155.447 172.365 155.586C172.193 155.725 172.051 155.897 171.947 156.093C171.844 156.288 171.781 156.502 171.762 156.722C171.744 156.943 171.77 157.164 171.84 157.374C171.805 157.398 171.773 157.427 171.739 157.453C171.654 157.445 171.571 157.43 171.483 157.43C171.185 157.432 170.889 157.482 170.607 157.579C170.597 157.538 170.58 157.5 170.567 157.46C170.62 157.216 170.615 156.964 170.554 156.722C170.493 156.48 170.377 156.256 170.214 156.067C170.052 155.878 169.848 155.729 169.618 155.632C169.388 155.535 169.139 155.492 168.89 155.508C168.748 155.111 168.515 154.753 168.211 154.461C167.907 154.169 167.54 153.951 167.137 153.824C166.735 153.698 166.309 153.666 165.892 153.732C165.475 153.797 165.08 153.958 164.736 154.202C164.392 154.446 164.109 154.766 163.909 155.137C163.709 155.508 163.598 155.921 163.584 156.342C163.57 156.763 163.654 157.182 163.829 157.566C164.004 157.949 164.266 158.287 164.593 158.553C164.405 158.574 164.219 158.615 164.039 158.673C163.974 158.407 163.843 158.161 163.657 157.958C163.472 157.756 163.238 157.604 162.978 157.516C162.718 157.428 162.44 157.407 162.169 157.456C161.899 157.504 161.645 157.621 161.432 157.793C161.188 157.504 160.883 157.272 160.538 157.115C160.194 156.957 159.819 156.878 159.44 156.883C159.142 156.884 158.846 156.935 158.565 157.032C158.514 156.817 158.42 156.614 158.289 156.436C158.158 156.258 157.993 156.109 157.802 155.997C157.611 155.884 157.4 155.812 157.181 155.784C156.962 155.755 156.739 155.772 156.526 155.832C156.313 155.892 156.115 155.995 155.943 156.133C155.771 156.272 155.629 156.445 155.525 156.64C155.422 156.835 155.359 157.049 155.34 157.269C155.322 157.49 155.348 157.711 155.418 157.921C155.054 158.172 154.757 158.508 154.552 158.899C154.347 159.289 154.24 159.724 154.24 160.166C154.24 160.174 154.242 160.182 154.242 160.19C153.854 160.132 153.457 160.174 153.091 160.315C153.04 160.1 152.947 159.897 152.815 159.719C152.684 159.541 152.519 159.391 152.328 159.279C152.137 159.167 151.926 159.095 151.707 159.066C151.488 159.038 151.265 159.054 151.052 159.115C150.839 159.175 150.641 159.277 150.469 159.416C150.297 159.555 150.155 159.727 150.051 159.922C149.948 160.118 149.885 160.332 149.866 160.552C149.848 160.772 149.874 160.994 149.944 161.204C149.416 161.561 149.03 162.092 148.853 162.704C148.676 163.316 148.72 163.971 148.976 164.554C149.232 165.138 149.685 165.613 150.255 165.898C150.825 166.182 151.478 166.258 152.098 166.111C152.197 166.682 152.475 167.207 152.892 167.609C153.309 168.011 153.844 168.27 154.418 168.348C154.993 168.426 155.577 168.319 156.086 168.042C156.596 167.766 157.004 167.335 157.251 166.811C159.223 167.067 161.224 166.977 163.164 166.545C163.345 167.063 163.679 167.514 164.121 167.84C164.563 168.166 165.093 168.351 165.642 168.371C166.19 168.39 166.732 168.244 167.197 167.951C167.661 167.657 168.026 167.231 168.243 166.727C168.642 166.719 169.035 166.622 169.391 166.443C169.641 166.884 170.009 167.247 170.454 167.491C170.899 167.734 171.403 167.849 171.91 167.821C172.416 167.794 172.905 167.626 173.321 167.336C173.737 167.046 174.064 166.646 174.265 166.18C174.873 166.065 175.503 166.166 176.045 166.467C176.587 166.767 177.006 167.248 177.231 167.825C177.597 167.324 178.068 166.909 178.611 166.609C179.154 166.309 179.756 166.13 180.375 166.086C180.925 166.239 181.51 166.212 182.043 166.009C182.577 165.805 183.031 165.436 183.339 164.955C183.167 165.621 183.252 166.328 183.578 166.934C183.905 167.539 184.447 168 185.098 168.224C185.749 168.448 186.461 168.418 187.091 168.14C187.721 167.863 188.223 167.358 188.497 166.727C188.896 166.719 189.288 166.622 189.645 166.443C189.895 166.884 190.263 167.247 190.708 167.491C191.153 167.734 191.657 167.849 192.163 167.821C192.67 167.794 193.159 167.626 193.575 167.336C193.991 167.046 194.318 166.646 194.518 166.18C194.917 166.172 195.31 166.075 195.666 165.896C195.859 166.239 196.124 166.536 196.443 166.766C196.762 166.996 197.127 167.154 197.513 167.229C197.899 167.304 198.297 167.293 198.679 167.199C199.061 167.105 199.417 166.928 199.724 166.682C199.819 167.205 200.065 167.689 200.432 168.075C200.8 168.46 201.271 168.729 201.79 168.849C202.308 168.969 202.851 168.935 203.35 168.751C203.849 168.566 204.283 168.24 204.599 167.812C204.928 168.064 205.309 168.237 205.715 168.319C206.121 168.401 206.54 168.389 206.94 168.284C207.341 168.179 207.712 167.985 208.026 167.715C208.34 167.445 208.587 167.107 208.751 166.727C209.058 166.758 209.369 166.723 209.663 166.625C209.956 166.528 210.226 166.37 210.454 166.161C210.682 165.952 210.864 165.698 210.987 165.415C211.11 165.131 211.172 164.825 211.169 164.516C211.166 164.207 211.098 163.902 210.969 163.621C210.84 163.34 210.653 163.089 210.42 162.885C210.188 162.681 209.915 162.529 209.62 162.437C209.324 162.346 209.013 162.317 208.706 162.354L208.706 162.354ZM159.781 161.225C159.778 161.238 159.776 161.252 159.773 161.265C159.753 161.264 159.734 161.26 159.714 161.26C159.632 161.262 159.551 161.27 159.47 161.285C159.474 161.275 159.481 161.266 159.485 161.256C159.584 161.251 159.683 161.241 159.781 161.225ZM182.65 160.315C182.642 160.283 182.629 160.254 182.619 160.222C183.037 159.933 183.366 159.533 183.57 159.068C183.93 159.066 184.286 158.988 184.614 158.84C184.942 158.691 185.235 158.475 185.474 158.206C185.453 158.311 185.442 158.418 185.442 158.524C185.444 158.691 185.472 158.857 185.525 159.015C185.055 159.343 184.699 159.809 184.507 160.349C183.912 160.117 183.254 160.105 182.65 160.315V160.315ZM199.045 160.519C199.044 160.485 199.048 160.451 199.046 160.417C199.116 160.417 199.185 160.412 199.255 160.403C199.361 160.757 199.538 161.086 199.776 161.369C199.724 161.383 199.67 161.392 199.62 161.409C199.531 161.057 199.329 160.744 199.045 160.519Z" fill="#F9A825"/>
<path d="M152.09 165.637C151.314 165.637 150.546 165.795 149.832 166.102C149.119 166.408 148.476 166.857 147.942 167.42C147.407 167.983 146.994 168.649 146.726 169.378C146.458 170.106 146.341 170.881 146.383 171.656L150.09 222.6C150.168 224.06 150.803 225.435 151.865 226.441C152.927 227.447 154.334 228.007 155.797 228.007H203.591C205.054 228.007 206.461 227.447 207.523 226.441C208.585 225.435 209.22 224.06 209.298 222.6L213.005 171.656C213.047 170.881 212.93 170.106 212.662 169.378C212.394 168.649 211.98 167.983 211.446 167.42C210.912 166.857 210.269 166.408 209.555 166.102C208.842 165.795 208.074 165.637 207.297 165.637H152.09Z" fill="#3F3D56"/>
<path d="M158.072 165.637H154.787V228.007H158.072V165.637Z" fill="#00B0FF"/>
<path d="M167.378 165.637H164.093V228.007H167.378V165.637Z" fill="#00B0FF"/>
<path d="M176.684 165.637H173.399V228.007H176.684V165.637Z" fill="#00B0FF"/>
<path d="M185.99 165.637H182.705V228.007H185.99V165.637Z" fill="#00B0FF"/>
<path d="M195.296 165.637H192.01V228.007H195.296V165.637Z" fill="#00B0FF"/>
<path d="M204.601 165.637H201.316V228.007H204.601V165.637Z" fill="#00B0FF"/>
<path d="M201.308 196.552L190.669 202.756C190.669 202.756 164.957 224.023 182.689 227.568C200.422 231.113 204.855 212.503 204.855 212.503L211.061 205.414L201.308 196.552Z" fill="#FFB8B8"/>
<path d="M150.77 192.122L161.41 198.325C161.41 198.325 187.122 219.593 169.39 223.137C151.657 226.682 147.224 208.072 147.224 208.072L141.018 200.983L150.77 192.122Z" fill="#FFB8B8"/>
<path d="M215.494 107.936L227.021 108.822C227.021 108.822 235.887 116.798 235 127.432C235 127.432 242.98 150.472 241.207 160.22C241.207 160.22 242.98 176.171 240.32 182.374C237.66 188.577 215.494 212.503 215.494 212.503C215.494 212.503 195.102 196.552 195.989 195.666L222.587 169.081L209.288 151.358L215.494 107.936Z" fill="#E6E6E6"/>
<path d="M140.131 101.733L139.688 102.176C139.688 102.176 119.738 110.595 120.625 121.229C120.625 121.229 112.645 144.269 114.419 154.017C114.419 154.017 112.645 169.968 115.305 176.171C117.965 182.374 140.131 206.3 140.131 206.3C140.131 206.3 160.523 190.349 159.637 189.463L133.038 162.878L146.337 145.155L140.131 101.733Z" fill="#E6E6E6"/>
</g>
<defs>
<clipPath id="clip0_32_670">
<rect width="394" height="376" fill="white"/>
</clipPath>
</defs>
</svg>
