<svg width="513" height="376" viewBox="0 0 513 376" fill="none" xmlns="http://www.w3.org/2000/svg">
<g clip-path="url(#clip0_32_563)">
<path opacity="0.1" d="M37.1002 150.885C47.8956 175.228 34.1216 203.27 17.9337 224.406C12.5049 231.481 6.53735 238.887 5.77587 247.793C4.86935 258.654 12.2355 268.64 20.9796 275.167C36.9189 287.062 58.6962 290.739 77.6659 284.74C94.0611 279.568 107.845 267.844 124.38 263.117C152.053 255.209 181.362 268.32 205.04 284.647C221.798 296.2 239.747 310.247 259.95 307.78C274.175 306.042 286.244 296.076 294.429 284.336C298.381 278.647 301.821 272.322 307.581 268.495C311.005 266.22 315.025 265.015 319.05 264.156C355.777 256.321 394.748 275.446 430.988 265.61C455.464 258.964 474.983 239.647 487.115 217.414C499.247 195.181 504.914 170.067 509.633 145.186C512.984 127.504 515.766 108.425 508.079 92.1551C499.925 74.9436 481.054 64.5122 462.09 62.5624C443.125 60.6127 424.098 66.0171 406.626 73.6403C384.791 83.1718 363.392 96.5148 339.558 96.5614C323.329 96.5924 307.856 90.3553 292.336 85.6335C266.342 77.7052 239.406 73.7644 212.505 70.1287C186.765 66.6481 160.776 63.4054 134.881 65.4741C116.558 66.9274 100.381 73.9195 82.6026 77.1519C71.0146 79.2619 59.3696 77.669 47.9992 81.2427C34.0128 85.6128 19.5913 95.7546 18.8195 111.709C18.0891 126.878 31.371 137.961 37.1002 150.885Z" fill="#00B0FF"/>
<g opacity="0.5">
<path d="M361.517 94.7254C358.927 95.4701 355.71 97.394 354.135 102.674C351.027 113.018 358.217 120.093 355.86 130.834C355.216 133.69 353.981 136.38 352.234 138.732C349.349 142.636 346.21 144.488 343.174 147.224C339.316 150.718 336.551 155.251 335.212 160.277C333.745 165.825 333.623 171.641 334.855 177.245C335.937 181.931 337.782 185.339 339.387 189.14C341.387 193.991 342.947 199.01 344.05 204.138C344.662 206.631 345.009 209.181 345.086 211.746C345.137 214.968 344.635 218.469 344.143 221.924L339.755 252.494C339.17 256.564 338.579 260.702 338.559 264.575C338.528 269.049 339.248 272.891 339.962 276.641C341.516 284.729 343.159 293.123 346.697 297.39C350.235 301.656 356.233 300.177 359.927 291.468C363.439 283.193 363.511 272.126 366.609 263.272C371.489 249.308 381.196 247.446 386.579 234.14C391.759 221.376 390.163 205.695 392.795 191.152C394.67 180.721 398.664 171.205 401.031 160.898C404.435 146.05 404.098 130.638 401.378 119.229C398.659 107.82 393.779 99.985 388.392 94.0427C386.107 91.5241 383.667 89.2847 380.798 89.0624C377.746 88.8296 375.099 92.6826 372.069 93.8152C368.557 95.1236 365.055 93.7221 361.517 94.7254Z" fill="#00B0FF"/>
<path d="M378.037 89.7864C378.037 89.7864 372.856 221.81 351.136 299.665" stroke="#535461" stroke-width="2" stroke-miterlimit="10"/>
<path d="M354.001 103.321C354.001 103.321 377.197 124.427 372.82 164.642" stroke="#535461" stroke-width="2" stroke-miterlimit="10"/>
<path d="M334.513 163.375C334.513 163.375 372.639 171.029 369.81 193.795" stroke="#535461" stroke-width="2" stroke-miterlimit="10"/>
<path d="M401.425 118.914C401.425 118.914 386.004 132.396 372.255 170.584" stroke="#535461" stroke-width="2" stroke-miterlimit="10"/>
<path d="M386.345 234.331C386.345 234.331 375.819 242.606 367.371 213.742" stroke="#535461" stroke-width="2" stroke-miterlimit="10"/>
<path d="M340.936 251.165C340.936 251.165 362.403 248.367 364.382 234.941" stroke="#535461" stroke-width="2" stroke-miterlimit="10"/>
</g>
<path d="M413.407 6.17492C408.092 6.96103 401.699 9.4176 399.073 17.0045C393.919 31.8784 409.594 43.1372 405.983 58.6783C404.901 63.3328 402.233 67.1185 399.42 69.8802C393.908 75.2899 387.635 77.6378 381.678 81.3098C375.721 84.9817 369.536 90.743 366.744 99.5918C364.055 108.104 365.221 117.512 368.013 124.54C370.805 131.569 375.032 136.808 378.808 142.59C383.407 149.708 387.252 157.284 390.282 165.195C391.634 168.676 392.872 172.348 393.313 176.516C393.8 181.269 393.183 186.384 392.572 191.39L387.122 235.867C386.397 241.788 385.667 247.813 386.086 253.518C386.558 260.101 388.506 265.842 390.427 271.448C394.572 283.54 399.006 296.102 406.812 302.799C414.619 309.497 426.885 308.033 433.485 295.642C439.768 283.845 438.613 267.58 443.969 254.909C452.413 234.941 472.279 233.327 481.836 214.373C491.01 196.189 485.877 172.927 489.56 151.795C492.202 136.652 499.345 123.118 503.028 108.218C508.312 86.7504 505.789 64.0207 498.796 46.8971C491.803 29.7735 480.779 17.6562 468.927 8.26947C463.903 4.29242 458.567 0.698069 452.62 0.0360877C446.28 -0.667267 441.224 4.65961 435.117 5.99909C428.02 7.58681 420.612 5.10955 413.407 6.17492Z" fill="#00B0FF"/>
<path d="M447.005 0.848145C447.005 0.848145 452.004 194.664 416.256 306.74" stroke="#535461" stroke-width="2" stroke-miterlimit="10"/>
<path d="M398.866 17.9355C398.866 17.9355 449.434 51.769 445.104 110.468" stroke="#535461" stroke-width="2" stroke-miterlimit="10"/>
<path d="M365.672 104.071C365.672 104.071 445.487 119.855 442.338 153.042" stroke="#535461" stroke-width="2" stroke-miterlimit="10"/>
<path d="M498.869 46.5144C498.869 46.5144 468.534 64.543 444.638 119.151" stroke="#535461" stroke-width="2" stroke-miterlimit="10"/>
<path d="M481.37 214.694C481.37 214.694 460.567 225.627 439.654 182.112" stroke="#535461" stroke-width="2" stroke-miterlimit="10"/>
<path d="M389.355 234.114C389.355 234.114 433.454 232.531 435.976 213.003" stroke="#535461" stroke-width="2" stroke-miterlimit="10"/>
<path opacity="0.1" d="M252.9 323.642C375.253 323.642 474.439 314.13 474.439 302.396C474.439 290.663 375.253 281.151 252.9 281.151C130.547 281.151 31.3606 290.663 31.3606 302.396C31.3606 314.13 130.547 323.642 252.9 323.642Z" fill="#00B0FF"/>
<path d="M34.8364 277.106C34.8364 277.106 39.1774 282.795 32.8317 291.328C26.4861 299.862 21.2541 307.113 23.3935 312.445C23.3935 312.445 32.9664 296.552 40.7574 296.33C48.5483 296.107 43.4096 286.664 34.8364 277.106Z" fill="#00B0FF"/>
<path opacity="0.1" d="M34.8365 277.106C35.2148 277.654 35.513 278.253 35.7223 278.885C43.3267 287.801 47.3724 296.123 40.0684 296.335C33.2617 296.531 25.0978 308.68 23.1397 311.752C23.2043 311.988 23.2822 312.222 23.3728 312.45C23.3728 312.45 32.9457 296.557 40.7367 296.335C48.5276 296.112 43.4096 286.664 34.8365 277.106Z" fill="black"/>
<path d="M42.9066 284.331C42.9066 286.327 42.6839 287.951 42.3888 287.951C42.0937 287.951 41.8711 286.333 41.8711 284.331C41.8711 282.33 42.1507 283.297 42.4251 283.297C42.6995 283.297 42.9066 282.335 42.9066 284.331Z" fill="#FFD037"/>
<path d="M45.6681 286.71C43.9121 287.667 42.3839 288.262 42.2544 287.998C42.1249 287.734 43.4355 286.783 45.1916 285.831C46.9476 284.879 46.2535 285.572 46.3882 285.831C46.5229 286.09 47.4294 285.748 45.6681 286.71Z" fill="#FFD037"/>
<path d="M11.904 277.106C11.904 277.106 7.56303 282.795 13.9087 291.328C20.2544 299.862 25.4656 307.113 23.3936 312.445C23.3936 312.445 13.8206 296.552 6.02971 296.33C-1.76123 296.107 3.33603 286.664 11.904 277.106Z" fill="#00B0FF"/>
<path opacity="0.1" d="M11.9039 277.106C11.5257 277.654 11.2274 278.253 11.0181 278.885C3.41369 287.801 -0.632001 296.123 6.672 296.335C13.4787 296.531 21.6426 308.68 23.6007 311.752C23.5361 311.988 23.4583 312.222 23.3676 312.45C23.3676 312.45 13.7947 296.557 6.00376 296.335C-1.78717 296.112 3.33599 286.664 11.9039 277.106Z" fill="black"/>
<path d="M3.8385 284.331C3.8385 286.327 4.06113 287.951 4.35624 287.951C4.65135 287.951 4.87398 286.333 4.87398 284.331C4.87398 282.33 4.5944 283.297 4.32 283.297C4.0456 283.297 3.8385 282.335 3.8385 284.331Z" fill="#FFD037"/>
<path d="M1.0671 286.71C2.82317 287.667 4.35131 288.262 4.48081 287.998C4.61031 287.734 3.29974 286.783 1.54367 285.831C-0.212399 284.879 0.481742 285.572 0.347058 285.831C0.212374 286.09 -0.688971 285.748 1.0671 286.71Z" fill="#FFD037"/>
<path d="M5.21643 311.705C5.21643 311.705 17.3535 311.333 21.0107 308.731C24.6679 306.13 39.6592 303.043 40.5865 307.18C41.5137 311.317 58.8257 327.924 45.1243 328.032C31.4228 328.141 13.2871 325.902 9.63509 323.683C5.98309 321.464 5.21643 311.705 5.21643 311.705Z" fill="#A8A8A8"/>
<path opacity="0.2" d="M45.3728 326.605C31.6714 326.713 13.5357 324.474 9.88369 322.255C7.10195 320.564 5.9934 314.498 5.62561 311.7H5.22156C5.22156 311.7 5.98822 321.475 9.64022 323.693C13.2922 325.912 31.4279 328.156 45.1501 328.048C49.1077 328.017 50.4701 326.61 50.3976 324.531C49.8122 325.788 48.3152 326.574 45.3728 326.605Z" fill="black"/>
<path d="M163.19 233.219C163.19 233.219 223.927 194.478 265.917 194.478C265.917 194.478 316.471 186.617 371.458 199.903C426.445 213.189 446.756 230.416 462.001 225.358L397.954 227.23L163.19 233.219Z" fill="#8CD0F3"/>
<path opacity="0.1" d="M163.19 233.219C163.19 233.219 223.927 194.478 265.917 194.478C265.917 194.478 316.471 186.617 371.458 199.903C426.445 213.189 446.756 230.416 462.001 225.358L397.954 227.23L163.19 233.219Z" fill="#8CD0F3"/>
<path d="M449.471 292.513H79.049L89.2332 251.775L152.224 235.055L449.471 242.854V292.513Z" fill="#121C3F"/>
<path d="M468.969 267.058V280.059C468.969 280.059 457.971 288.024 456.972 294.261C456.972 294.261 441.224 298.254 436.728 298.254C436.318 298.254 435.873 298.254 435.407 298.3C436.109 296.418 436.658 294.483 437.049 292.513C438.152 286.985 438.013 281.281 436.642 275.813C435.271 270.345 432.703 265.248 429.122 260.891C425.54 256.533 421.036 253.022 415.932 250.612C410.828 248.201 405.253 246.951 399.607 246.951C393.961 246.951 388.385 248.201 383.281 250.612C378.178 253.022 373.673 256.533 370.092 260.891C366.51 265.248 363.942 270.345 362.571 275.813C361.201 281.281 361.062 286.985 362.165 292.513C362.695 295.178 363.509 297.779 364.594 300.271H343.241C343.241 300.271 343.045 300.338 342.723 300.477C341.579 300.995 338.88 302.36 338.491 304.506H161.532L157.906 304.475C158.677 303.184 159.369 301.847 159.978 300.472C161.115 297.926 161.96 295.259 162.496 292.523C163.549 287.298 163.494 281.911 162.334 276.709C161.175 271.507 158.936 266.605 155.762 262.319C152.589 258.034 148.551 254.46 143.909 251.827C139.267 249.195 134.125 247.563 128.813 247.037C123.5 246.51 118.137 247.101 113.067 248.771C107.998 250.44 103.335 253.152 99.3795 256.731C95.424 260.31 92.2636 264.677 90.1021 269.55C87.9405 274.423 86.8257 279.695 86.8295 285.024C86.8294 287.537 87.0758 290.043 87.5651 292.508C88.3999 296.681 89.9303 300.684 92.0926 304.351C89.5647 303.736 84.0478 301.988 84.0478 301.988C84.0478 301.988 60.5559 299.495 54.5573 294.23L55.4638 293.604L59.3074 290.982L57.5566 284.259C57.3452 283.975 57.1711 283.666 57.0385 283.338C56.5723 282.216 56.1631 280.132 57.8104 277.515C60.3072 273.522 59.0588 259.3 59.0588 259.3C59.0588 259.3 93.0509 235.846 160.035 230.602C160.035 230.602 161.636 231.843 164.941 232.102C167.179 232.283 170.199 232.009 174.037 230.602C174.037 230.602 179.533 233.095 203.046 219.623C203.046 219.623 243.042 192.171 295.532 194.674C295.532 194.674 349.52 191.426 395.509 209.155C415.328 216.789 430.408 220.859 441.157 223.01C451.082 225.001 457.313 225.368 460.168 225.399H460.23C461.162 225.399 461.717 225.399 461.913 225.399H461.996C461.996 225.399 461.996 231.342 462.312 238.36V238.396C462.426 240.837 462.582 243.407 462.799 245.905V246.06C463.4 253.016 464.436 259.336 466.234 260.588L468.969 267.058Z" fill="#2856B8"/>
<path d="M64.4617 258.731C64.4617 258.731 79.5204 247.002 98.2673 249.5C98.2673 249.5 81.2091 262.977 73.5218 262.103L72.2112 260.981L64.441 261.415C64.441 261.415 63.2806 259.605 64.4617 258.731Z" fill="#8CD0F3"/>
<path opacity="0.2" d="M79.0801 279.025V285.95C79.0801 285.95 78.562 292.564 72.579 292.813L55.4845 293.656L59.323 291.034L57.5721 284.31C57.3598 284.029 57.1856 283.722 57.0541 283.395C58.6081 281.968 62.2705 279.558 69.7195 279.04L79.0801 279.025Z" fill="white"/>
<path opacity="0.2" d="M158.626 250.001L171.748 249.484C171.748 249.484 166.438 253.663 162.688 254.04C158.937 254.418 158.626 250.001 158.626 250.001Z" fill="white"/>
<path opacity="0.2" d="M186.247 289.741C186.247 289.741 304.908 273.269 333.591 278.508C333.591 278.508 342.024 279.072 345.215 282.438C348.406 285.805 345.215 283.623 345.215 283.623L186.247 289.741Z" fill="white"/>
<path opacity="0.5" d="M252.672 243.511C252.672 243.511 254.174 240.702 256.609 240.64L272.419 239.828C272.419 239.828 272.17 242.011 269.357 242.823L252.672 243.511Z" fill="#18218A"/>
<path opacity="0.5" d="M344.153 238.768C344.153 238.768 345.655 235.96 348.09 235.898L363.9 235.065C363.9 235.065 363.651 237.248 360.838 238.06L344.153 238.768Z" fill="#18218A"/>
<path d="M290.171 200.29L278.039 232.055L234.298 232.102H223.036H213.241H204.771H195.177C195.177 232.102 201.021 227.82 210.433 222.363C213.541 220.553 217.069 218.619 220.897 216.675C224.419 214.875 228.211 213.054 232.195 211.327C235.303 209.962 238.577 208.648 241.923 207.422C257.096 201.883 274.149 198.165 290.171 200.29Z" fill="#8CD0F3"/>
<path d="M358.901 223.486C358.901 223.486 340.625 226.191 323.184 228.192C316.517 228.957 309.975 229.619 304.618 229.987L303.872 230.038C301.8 230.173 299.879 230.261 298.247 230.292C295.657 230.338 293.719 230.224 292.751 229.914L297.791 199.53C297.791 199.53 304.007 199.598 313.202 200.047L315.212 200.156C317.123 200.265 319.138 200.389 321.241 200.534C324.246 200.74 327.411 200.989 330.674 201.289C346.432 202.732 364.283 205.323 375.586 209.988C399.638 219.928 358.901 223.486 358.901 223.486Z" fill="#8CD0F3"/>
<path d="M443.13 238.768V246.877C443.13 246.877 430.009 247.064 432.822 244.447C434.642 242.709 436.295 240.804 437.758 238.758L443.13 238.768Z" fill="#8CD0F3"/>
<path d="M462.789 246.05L452.133 246.883V237.134C452.133 237.134 457.07 230.209 462.007 237.884L462.292 238.334L462.789 246.05Z" fill="#8CD0F3"/>
<path d="M125.043 315.47C141.886 315.47 155.539 301.839 155.539 285.024C155.539 268.209 141.886 254.578 125.043 254.578C108.201 254.578 94.548 268.209 94.548 285.024C94.548 301.839 108.201 315.47 125.043 315.47Z" fill="#182A7C"/>
<path d="M149.504 284.998C149.515 291.281 147.109 297.327 142.782 301.889C138.456 306.451 132.539 309.179 126.255 309.511C119.971 309.842 113.8 307.751 109.016 303.67C104.232 299.589 101.201 293.829 100.549 287.58C99.8972 281.331 101.674 275.071 105.513 270.093C109.352 265.115 114.959 261.799 121.176 260.831C127.394 259.862 133.746 261.315 138.922 264.888C144.097 268.462 147.7 273.884 148.986 280.033C149.327 281.666 149.501 283.33 149.504 284.998Z" fill="#3F8FFE"/>
<path opacity="0.5" d="M125.007 306.037C136.62 306.037 146.033 296.615 146.033 284.993C146.033 273.371 136.62 263.949 125.007 263.949C113.395 263.949 103.981 273.371 103.981 284.993C103.981 296.615 113.395 306.037 125.007 306.037Z" fill="#18218A"/>
<path d="M132.042 261.503V262.393L125.043 285.526L119.428 261.12C123.595 260.151 127.942 260.283 132.042 261.503Z" fill="#3F8FFE"/>
<path d="M131.99 308.504C127.982 309.689 123.737 309.835 119.656 308.928L125.038 285.526L131.99 308.504Z" fill="#3F8FFE"/>
<path d="M149.504 284.998C149.508 287.55 149.113 290.087 148.333 292.518H148.235L125.064 285.531L149.028 280.039C149.354 281.672 149.513 283.333 149.504 284.998Z" fill="#3F8FFE"/>
<path d="M125.044 285.526L101.873 292.513H101.691C100.401 288.474 100.171 284.171 101.023 280.018L125.044 285.526Z" fill="#3F8FFE"/>
<path d="M125.007 287.677C126.492 287.677 127.696 286.476 127.696 284.993C127.696 283.511 126.492 282.309 125.007 282.309C123.522 282.309 122.319 283.511 122.319 284.993C122.319 286.476 123.522 287.677 125.007 287.677Z" fill="#182A7C"/>
<path d="M399.42 315.47C416.262 315.47 429.916 301.839 429.916 285.024C429.916 268.209 416.262 254.578 399.42 254.578C382.578 254.578 368.925 268.209 368.925 285.024C368.925 301.839 382.578 315.47 399.42 315.47Z" fill="#182A7C"/>
<path d="M423.886 284.998C423.897 291.281 421.491 297.327 417.164 301.889C412.837 306.451 406.921 309.179 400.637 309.511C394.353 309.842 388.182 307.751 383.398 303.67C378.614 299.589 375.583 293.829 374.931 287.58C374.279 281.331 376.056 275.071 379.895 270.093C383.733 265.115 389.341 261.799 395.558 260.831C401.776 259.862 408.128 261.315 413.304 264.888C418.479 268.462 422.082 273.884 423.368 280.033C423.709 281.666 423.883 283.33 423.886 284.998Z" fill="#3F8FFE"/>
<path opacity="0.5" d="M399.389 306.037C411.002 306.037 420.415 296.615 420.415 284.993C420.415 273.371 411.002 263.949 399.389 263.949C387.777 263.949 378.363 273.371 378.363 284.993C378.363 296.615 387.777 306.037 399.389 306.037Z" fill="#18218A"/>
<path d="M406.419 261.503V262.393L399.42 285.526L393.805 261.12C397.971 260.151 402.319 260.283 406.419 261.503Z" fill="#3F8FFE"/>
<path d="M406.372 308.504C402.363 309.689 398.119 309.835 394.038 308.928L399.42 285.526L406.372 308.504Z" fill="#3F8FFE"/>
<path d="M423.886 284.998C423.89 287.55 423.495 290.087 422.715 292.518H422.596L399.42 285.526L423.383 280.033C423.718 281.667 423.887 283.331 423.886 284.998Z" fill="#3F8FFE"/>
<path d="M399.42 285.526L376.249 292.513H376.068C374.778 288.474 374.548 284.171 375.4 280.018L399.42 285.526Z" fill="#3F8FFE"/>
<path d="M399.389 287.677C400.874 287.677 402.078 286.476 402.078 284.993C402.078 283.511 400.874 282.309 399.389 282.309C397.904 282.309 396.701 283.511 396.701 284.993C396.701 286.476 397.904 287.677 399.389 287.677Z" fill="#182A7C"/>
<path opacity="0.2" d="M220.902 216.706L213.241 232.122H204.771L210.433 222.394C213.557 220.584 217.074 218.655 220.902 216.706Z" fill="white"/>
<path opacity="0.2" d="M241.923 207.453L234.293 232.107H223.031L232.2 211.348C235.329 209.993 238.582 208.689 241.923 207.453Z" fill="white"/>
<path opacity="0.2" d="M321.252 200.56L304.629 229.992L303.883 230.044C301.811 230.178 299.889 230.266 298.257 230.297L313.212 200.079L315.222 200.187C317.108 200.291 319.138 200.415 321.252 200.56Z" fill="white"/>
<path opacity="0.2" d="M195.468 232.019L185.978 297.281L265.239 295.549L278.251 232.303L195.468 232.019Z" stroke="white" stroke-miterlimit="10"/>
<path opacity="0.5" d="M342.729 300.457C341.584 300.974 338.885 302.339 338.496 304.485H161.532L157.906 304.454C158.677 303.163 159.369 301.826 159.978 300.451L342.729 300.457Z" fill="#18218A"/>
<path d="M189.733 347.617C190.94 346.495 192.075 345.171 192.427 343.563C192.779 341.954 192.09 340.02 190.546 339.425C188.821 338.763 186.972 339.943 185.573 341.168C184.175 342.394 182.569 343.754 180.74 343.496C181.682 342.643 182.387 341.561 182.785 340.356C183.184 339.15 183.263 337.862 183.014 336.617C182.934 336.103 182.716 335.621 182.383 335.221C181.424 334.186 179.684 334.636 178.539 335.443C174.913 338.029 173.877 342.958 173.851 347.416C173.483 345.807 173.794 344.132 173.783 342.482C173.773 340.832 173.322 339.007 171.929 338.117C171.061 337.651 170.085 337.423 169.101 337.455C167.459 337.393 165.63 337.558 164.511 338.758C163.118 340.248 163.475 342.746 164.692 344.385C165.91 346.025 167.749 347.054 169.442 348.186C170.802 348.996 171.962 350.1 172.835 351.419C172.939 351.603 173.024 351.797 173.089 351.998H183.377C185.684 350.831 187.822 349.357 189.733 347.617Z" fill="#00B0FF"/>
<path d="M404.756 356.316C405.705 355.544 406.397 354.501 406.74 353.327C406.999 352.138 406.491 350.715 405.351 350.281C404.077 349.795 402.715 350.674 401.684 351.569C400.653 352.463 399.467 353.477 398.115 353.286C398.81 352.657 399.33 351.859 399.624 350.97C399.918 350.081 399.976 349.131 399.793 348.212C399.735 347.832 399.573 347.474 399.327 347.178C398.617 346.423 397.338 346.749 396.488 347.343C393.795 349.236 393.043 352.887 393.028 356.177C392.758 354.992 392.986 353.756 392.976 352.557C392.966 351.357 392.634 349.971 391.608 349.34C390.972 348.999 390.258 348.829 389.536 348.848C388.324 348.802 386.977 348.926 386.149 349.81C385.113 350.907 385.387 352.753 386.283 353.948C387.179 355.142 388.537 355.913 389.79 356.751C390.795 357.347 391.652 358.162 392.297 359.135C392.373 359.27 392.436 359.412 392.484 359.559H400.073C401.773 358.694 403.348 357.603 404.756 356.316Z" fill="#00B0FF"/>
<path d="M438.427 372.768C439.376 371.995 440.068 370.953 440.411 369.778C440.67 368.589 440.162 367.167 439.022 366.732C437.748 366.246 436.386 367.125 435.355 368.02C434.324 368.915 433.138 369.929 431.786 369.737C432.481 369.108 433 368.31 433.295 367.421C433.589 366.532 433.647 365.582 433.464 364.664C433.406 364.283 433.244 363.925 432.998 363.629C432.288 362.874 431.009 363.2 430.159 363.795C427.465 365.688 426.714 369.339 426.699 372.628C426.429 371.444 426.657 370.208 426.647 369.008C426.637 367.808 426.305 366.422 425.279 365.791C424.643 365.45 423.929 365.281 423.207 365.3C421.995 365.253 420.648 365.377 419.82 366.262C418.784 367.358 419.058 369.204 419.954 370.399C420.85 371.594 422.208 372.364 423.461 373.202C424.466 373.799 425.323 374.613 425.968 375.586C426.044 375.721 426.107 375.863 426.155 376.01H433.744C435.444 375.145 437.019 374.055 438.427 372.768Z" fill="#00B0FF"/>
<path d="M341.076 338.195C341.076 338.195 339.268 339.177 338.445 333.613C337.927 329.992 336.419 322.53 335.43 317.684L335.306 317.068C335.589 316.98 335.867 316.876 336.14 316.758C336.14 316.758 330.379 294.52 331.695 289.596C333.011 284.673 331.695 275.85 331.695 275.85L328.24 264.234C328.24 264.234 319.682 261.286 316.393 260.469C313.103 259.652 303.888 253.921 303.888 253.921C304.046 254.105 304.195 254.297 304.333 254.496L303.966 254.273C303.293 253.646 302.686 252.953 302.153 252.204C303.991 250.252 305.181 247.782 305.561 245.13C306.79 242.802 307.371 240.187 307.241 237.558C307.112 234.93 306.278 232.385 304.826 230.188C305.385 229.489 305.812 228.693 306.084 227.84C306.194 227.45 306.241 227.045 306.224 226.641C306.284 225.992 306.143 225.34 305.821 224.773C305.499 224.206 305.01 223.752 304.422 223.47C304.029 223.307 303.606 223.225 303.181 223.23C302.755 223.234 302.335 223.325 301.945 223.496C301.215 223.827 300.64 224.448 299.842 224.613C298.511 224.887 297.371 223.822 296.325 223.031C294.699 221.821 292.759 221.103 290.736 220.962C289.857 220.864 288.968 220.981 288.146 221.303C287.364 221.745 286.643 222.286 286.001 222.912C283.628 224.82 280.303 225.353 277.324 226.392C276.754 226.589 276.122 226.91 276.019 227.427C275.997 227.529 275.997 227.635 276.019 227.737C275.995 227.868 276.005 228.004 276.05 228.13C270.497 229.061 265.063 233.271 265.063 233.271L264.151 234.114C263.853 233.953 263.514 233.882 263.177 233.911C262.839 233.939 262.517 234.065 262.25 234.274L260.416 235.712C260.085 235.971 259.859 236.342 259.783 236.756C259.707 237.169 259.785 237.596 260.002 237.956L246.59 250.368L246.3 250.637V250.591C246.3 250.591 235.94 258.447 235.94 264.006C235.94 268.025 239.048 270.502 240.742 271.573C239.223 273 238.074 274.775 237.396 276.744V276.796V276.868V276.925V276.987V277.039V277.096V277.148V277.199V277.246V277.292V277.334V277.38V277.417V277.473V277.525V277.556V277.587V277.815V277.877V278.001V278.089V278.177L237.354 278.404V278.497L237.328 278.653V278.715V278.865V278.973L237.292 279.18L237.245 279.439V279.49L237.209 279.708V279.811L237.168 280.049V280.111L237.121 280.38V280.499L237.002 281.176L236.94 281.544V281.606L236.872 281.983V282.035L236.805 282.418V282.449L236.733 282.852V282.94L236.66 283.338V283.426L236.593 283.819V283.866L236.515 284.311V284.393L236.339 285.386L236.251 285.903V285.981L236.163 286.498V286.534L235.971 287.569V287.657L235.878 288.174V288.246L235.676 289.337V289.384L235.572 289.937V289.984L235.365 291.111V291.184L235.261 291.742V291.784L235.044 292.937V292.999L234.935 293.568V293.609L234.712 294.778V294.825L234.604 295.394V295.44L233.656 296.609V296.661L233.542 297.224V297.255L233.309 298.403V298.435L233.195 298.993V299.024L232.967 300.12V300.167L232.858 300.684V300.731L232.635 301.765V301.801L232.526 302.318V302.37L232.309 303.348V303.374L232.205 303.834V303.88C232.133 304.191 232.062 304.491 231.993 304.78L231.889 305.204V305.24C231.82 305.523 231.753 305.794 231.687 306.052L231.589 306.425V306.466L231.495 306.823C231.081 308.375 230.718 309.409 230.459 309.652C230.197 309.927 229.991 310.25 229.853 310.604L229.812 310.707L229.77 310.821L229.734 310.935L229.563 311.09L229.527 311.209L229.496 311.317L229.465 311.441V311.555L229.439 311.679V311.793C229.439 311.876 229.425 311.959 229.397 312.041V312.145V312.284V312.393V312.533V312.641V312.781V312.889V313.029V313.133C229.397 313.303 229.397 313.469 229.397 313.65C229.397 313.681 229.397 313.712 229.397 313.748C229.397 313.784 229.397 313.836 229.397 313.882C229.397 313.929 229.397 313.95 229.397 313.981C229.397 314.012 229.397 314.069 229.397 314.11C229.397 314.151 229.397 314.172 229.397 314.208C229.397 314.244 229.397 314.291 229.397 314.332V314.425C229.397 314.467 229.397 314.508 229.397 314.55V314.632C229.397 314.708 229.397 314.782 229.397 314.855V315.672V315.786V316.111L230.952 316.582C230.952 316.582 231.734 317.011 232.941 317.57C232.77 322.788 232.288 329.853 230.977 334.176C228.056 334.326 220.84 334.631 219.535 334.109C217.887 333.452 207.356 331.818 210.651 339.343C212.028 342.498 215.028 344.877 218.043 346.583C217.669 346.706 217.289 346.804 216.903 346.878C214.22 347.395 213.474 348.29 213.577 349.211C213.386 350.762 216.028 352.495 216.245 352.603C216.577 352.769 227.761 354.568 230.397 353.746C233.034 352.924 243.726 350.964 243.726 350.964C243.726 350.964 243.726 350.845 243.726 350.638C243.726 350.638 243.581 347.421 243.177 344.37C244.389 344.194 245.71 344.034 246.994 343.935C247.16 344.709 247.499 345.435 247.988 346.058C248.476 346.68 249.1 347.184 249.812 347.53C256.889 351.15 259.194 346.221 259.194 346.221C259.194 346.221 268.761 348.057 274.107 346.738C274.667 347.256 275.143 347.623 275.48 347.871C277.215 349.117 281.888 349.971 287.115 350.033C288.506 350.17 289.909 350.13 291.29 349.914C293.597 349.762 295.885 349.403 298.128 348.843C304.422 347.214 305.805 341.37 306.105 338.717C306.354 338.645 306.53 338.386 306.623 337.9C306.747 337.635 306.821 337.349 306.841 337.057C306.978 335.856 307.203 334.667 307.514 333.499L315.284 333.933C318.755 340.222 321.822 345.223 321.822 345.223L327.085 344.566C324.743 342.695 322.692 340.489 320.998 338.019C318.366 334.094 318.366 315.263 318.366 315.263L318.662 303.798V303.917V303.363C319.149 306.761 323.008 316.618 323.443 316.763C323.759 316.867 324.07 316.96 324.375 317.048L324.655 317.782C326.852 323.595 332.425 338.469 332.819 340.817C333.337 343.765 353.882 344.908 358.487 343.434C363.092 341.96 341.076 338.195 341.076 338.195ZM267.689 273.072L260.157 284.367C257.453 279.713 254.635 275.431 252.087 272.597C258.769 272.819 266.472 273.057 267.689 273.072ZM266.544 244.111C266.836 244.248 267.161 244.302 267.482 244.267C267.803 244.231 268.108 244.107 268.363 243.909L269.005 243.392C269.333 243.138 269.558 242.774 269.639 242.367C269.72 241.961 269.651 241.538 269.445 241.178L269.829 240.801C272.481 240.353 275.098 239.718 277.661 238.903C277.758 241.237 278.416 243.515 279.578 245.543C279.807 246.841 280.233 248.097 280.842 249.267C279.66 249.169 278.376 249.101 277.148 249.112C276.075 249.09 275.003 249.157 273.942 249.313C269.994 249.97 269.497 257.169 269.497 257.169C269.497 257.169 261.566 259.952 256.8 260.05C256.197 260.053 255.596 259.964 255.019 259.786L254.537 259.755L255.184 257.986C255.184 257.986 254.905 258.074 254.444 258.167C254.592 257.943 254.747 257.716 254.91 257.485C257.925 253.166 263.146 247.602 266.544 244.121V244.111ZM250.248 331.487C249.641 332.523 249.096 333.594 248.616 334.693C246.746 335.055 244.197 335.257 242.845 334.104C242.235 333.605 241.469 333.336 240.68 333.344L240.711 333.282C241.643 331.497 242.436 327.5 243.058 323.362C246.072 323.362 248.937 320.844 248.937 320.844L252.734 322.142L252.874 322.405L252.967 322.576L253.117 322.855L253.211 323.031L253.361 323.305L253.459 323.481L253.609 323.75L253.708 323.926L253.853 324.19L253.951 324.366L254.102 324.629L254.2 324.8L254.35 325.059L254.444 325.224L254.594 325.483L254.687 325.643L254.832 325.896L254.925 326.057L255.075 326.31L255.164 326.455L255.314 326.703L255.402 326.848L255.552 327.096L255.63 327.226L255.785 327.479L255.842 327.572C256.111 328.012 256.36 328.43 256.614 328.824L256.65 328.88L256.795 329.108L256.857 329.206L256.987 329.413L257.059 329.522L257.179 329.708L257.251 329.827L257.36 329.998L257.438 330.116L257.541 330.277L257.614 330.391L257.707 330.535L257.779 330.649L257.868 330.784L257.94 330.897L258.023 331.022L258.096 331.13C255.503 331.557 252.868 331.677 250.248 331.487Z" fill="url(#paint0_linear_32_563)"/>
<path d="M356.663 342.503C352.172 343.946 332.12 342.823 331.638 339.917C331.255 337.605 325.821 323.057 323.676 317.368L322.816 315.093L333.244 312.848C333.244 312.848 333.627 314.674 334.155 317.275C335.119 322.023 336.575 329.351 337.093 332.868C337.896 338.314 339.683 337.352 339.683 337.352C339.683 337.352 361.139 341.06 356.663 342.503Z" fill="#FFBDC6"/>
<path d="M300.013 247.995C300.013 247.995 299.21 252.799 306.11 257.304C313.01 261.808 307.074 277.965 307.074 277.965L301.971 278.249C298.731 278.431 295.546 277.351 293.087 275.237C290.627 273.123 289.085 270.139 288.783 266.913C288.783 266.913 291.668 262.258 286.374 250.255L300.013 247.995Z" fill="#FFBDC6"/>
<path d="M270.196 242.083C270.196 242.083 260.266 251.749 255.65 258.411C255.103 259.183 254.603 259.988 254.153 260.821C250.786 267.228 242.954 256.812 245.663 253.213L247.533 251.47L265.539 234.714C265.539 234.714 277.894 225.105 284.146 231.993C290.399 238.882 270.196 242.083 270.196 242.083Z" fill="#FFBDC6"/>
<path d="M292.253 254.014C300.227 254.014 306.69 247.561 306.69 239.601C306.69 231.64 300.227 225.187 292.253 225.187C284.28 225.187 277.816 231.64 277.816 239.601C277.816 247.561 284.28 254.014 292.253 254.014Z" fill="#A66477"/>
<path d="M233.464 333.369C233.464 333.369 222.715 334.011 221.109 333.369C219.503 332.728 209.242 331.13 212.469 338.5C215.696 345.869 227.869 348.91 227.869 348.91L236.676 346.666L233.464 333.369Z" fill="#7679B4"/>
<path opacity="0.05" d="M233.464 333.369C233.464 333.369 222.715 334.011 221.109 333.369C219.503 332.728 209.242 331.13 212.469 338.5C215.696 345.869 227.869 348.91 227.869 348.91L236.676 346.666L233.464 333.369Z" fill="black"/>
<path d="M271.802 301.822L293.377 310.573L305.649 336.597C305.649 336.597 305.81 345.725 297.791 347.809C289.772 349.893 278.542 348.931 275.651 346.847C272.76 344.763 260.893 332.433 260.893 332.433L271.802 301.822Z" fill="#7679B4"/>
<path opacity="0.05" d="M270.336 301.822L289.011 308.809L299.635 329.636C299.635 329.636 299.775 336.943 292.834 338.609C285.892 340.274 276.169 339.503 273.667 337.838C271.165 336.173 260.893 326.3 260.893 326.3L270.336 301.822Z" fill="black"/>
<path d="M251.75 333.37C251.75 333.37 246.135 335.293 243.892 333.37C241.648 331.446 237.634 333.85 237.634 333.85L239.406 344.261C239.406 344.261 247.424 342.498 251.76 342.979L251.75 333.37Z" fill="#FFBDC6"/>
<path opacity="0.05" d="M251.75 333.37C251.75 333.37 246.135 335.293 243.892 333.37C241.648 331.446 237.634 333.85 237.634 333.85L239.406 344.261C239.406 344.261 247.424 342.498 251.76 342.979L251.75 333.37Z" fill="black"/>
<path d="M254.946 322.162L249.823 320.399C249.823 320.399 244.208 325.364 240.499 321.2C236.79 317.037 243.866 299.738 243.866 299.738L251.403 287.563L256.857 304.703L261.83 313.029L254.946 322.162Z" fill="#565388"/>
<path opacity="0.05" d="M254.946 322.162L249.823 320.399C249.823 320.399 244.208 325.364 240.499 321.2C236.79 317.037 243.866 299.738 243.866 299.738L251.403 287.563L256.857 304.703L261.83 313.029L254.946 322.162Z" fill="black"/>
<path d="M303.883 321.2L315.434 322.798L317.683 333.369L303.406 332.568L303.883 321.2Z" fill="#565388"/>
<path opacity="0.05" d="M303.883 321.2L315.434 322.798L317.683 333.369L303.406 332.568L303.883 321.2Z" fill="black"/>
<path opacity="0.1" d="M287.684 263.225C287.684 263.225 292.497 281.642 307.887 268.351L312.057 321.2C312.057 321.2 306.924 329.367 306.121 336.716C305.318 344.065 291.362 313.96 283.022 313.815C274.682 313.67 266.42 302.044 266.42 302.044L275.806 282.743L287.684 263.225Z" fill="black"/>
<path d="M287.845 262.744C287.845 262.744 292.657 281.161 308.048 267.87L312.218 320.719C312.218 320.719 307.084 328.886 306.281 336.235C305.478 343.584 291.523 313.479 283.183 313.334C274.843 313.189 266.581 301.563 266.581 301.563L275.967 282.262L287.845 262.744Z" fill="#F2F1F2"/>
<path opacity="0.1" d="M285.276 250.891C285.276 250.891 278.541 249.769 274.687 250.41C270.833 251.051 270.357 258.095 270.357 258.095C270.357 258.095 259.447 261.938 255.759 260.681C255.759 260.681 237.629 259.398 237.629 264.844C237.629 270.29 243.41 272.819 243.41 272.819C243.41 272.819 268.58 273.667 268.756 273.621C274.532 272.017 268.596 273.621 268.596 273.621L258.168 289.317L267.793 302.608L278.06 295.083C278.06 295.083 279.344 288.034 282.722 284.512C285.125 281.994 288.27 270.657 289.87 264.384C290.207 263.063 290.277 261.688 290.077 260.339C289.877 258.991 289.411 257.695 288.705 256.528L285.276 250.891Z" fill="black"/>
<path opacity="0.1" d="M255.65 258.41C255.103 259.183 254.603 259.988 254.153 260.82C250.786 267.228 242.954 256.812 245.663 253.213L247.533 251.47C246.849 259.734 253.589 258.855 255.65 258.41Z" fill="black"/>
<path opacity="0.1" d="M268.596 272.995H268.414C268.414 272.995 274.371 271.392 268.596 272.995Z" fill="black"/>
<path d="M284.794 250.891C284.794 250.891 278.06 249.769 274.206 250.41C270.352 251.051 269.875 258.095 269.875 258.095C269.875 258.095 258.966 261.938 255.277 260.681L255.92 258.917C255.92 258.917 246.14 261.958 247.259 251.692C247.259 251.692 237.152 259.378 237.152 264.823C237.152 270.269 242.928 272.819 242.928 272.819C242.928 272.819 268.098 273.667 268.274 273.621C274.05 272.017 268.114 273.621 268.114 273.621L257.686 289.317L267.311 302.608L277.578 295.083C277.578 295.083 278.863 288.034 282.24 284.512C284.644 281.994 287.788 270.657 289.389 264.384C289.725 263.063 289.796 261.688 289.595 260.339C289.395 258.991 288.929 257.695 288.223 256.528L284.794 250.891Z" fill="#565388"/>
<path opacity="0.1" d="M317.843 302.944V303.823C317.775 303.534 317.775 303.233 317.843 302.944Z" fill="black"/>
<path opacity="0.1" d="M334.155 317.296C330.746 318.344 327.104 318.376 323.676 317.389L322.816 315.113L333.244 312.869C333.244 312.869 333.622 314.71 334.155 317.296Z" fill="black"/>
<path opacity="0.1" d="M302.924 254.894C302.924 254.894 311.907 260.5 315.118 261.302C318.33 262.103 326.67 264.984 326.67 264.984L330.037 276.362C330.037 276.362 331.322 285.009 330.037 289.808C328.753 294.607 316.724 303.741 317.367 302.298L317.046 314.948C317.046 314.948 317.046 333.364 319.636 337.186C322.226 341.008 314.74 333.421 314.74 333.421C314.74 333.421 305.675 320.047 304.556 311.56C303.437 303.074 305.193 270.43 305.193 270.43L303.588 268.185C303.588 268.185 306.934 259.538 302.924 254.894Z" fill="black"/>
<path d="M303.406 254.894C303.406 254.894 312.389 260.5 315.6 261.302C318.812 262.103 327.152 264.984 327.152 264.984L330.519 276.362C330.519 276.362 331.804 285.009 330.519 289.808C329.234 294.607 334.85 316.396 334.85 316.396C334.85 316.396 329.67 318.785 322.495 316.396C322.013 316.236 317.201 303.746 317.833 302.303L317.512 314.953C317.512 314.953 317.512 333.37 320.102 337.191C321.753 339.608 323.754 341.767 326.038 343.599L320.905 344.241C320.905 344.241 306.131 320.078 305.007 311.607C303.883 303.136 305.649 270.445 305.649 270.445L304.043 268.201C304.043 268.201 307.416 259.538 303.406 254.894Z" fill="#565388"/>
<path d="M259.608 331.776C259.608 331.776 248.859 316.261 249.341 309.021C249.341 309.021 248.056 318.951 246.616 319.592C245.176 320.233 230.734 315.744 230.734 315.744C230.734 315.744 230.092 311.09 231.698 309.497C233.303 307.904 238.276 278.265 238.276 278.265C238.276 278.265 240.043 270.259 247.74 269.778C255.438 269.297 272.766 308.374 272.766 308.374C272.766 308.374 275.33 331.776 259.608 331.776Z" fill="#7679B4"/>
<path d="M234.267 310.629C234.267 310.629 234.588 333.049 230.579 336.736C226.569 340.424 242.291 342.342 242.291 342.342C242.291 342.342 239.566 336.897 241.809 332.573C244.052 328.249 245.497 310.629 245.497 310.629H234.267Z" fill="#FFBDC6"/>
<path opacity="0.05" d="M235.065 336.431C235.065 336.431 233.459 332.428 229.128 335.629C229.128 335.629 225.279 344.597 218.54 345.88C211.801 347.162 217.576 351.005 217.898 351.165C218.219 351.326 229.128 353.089 231.692 352.288C234.256 351.486 244.684 349.567 244.684 349.567C244.684 349.567 244.202 338.996 242.612 338.19C241.022 337.383 241.804 342.984 235.065 336.431Z" fill="black"/>
<path d="M235.065 336.736C235.065 336.736 233.459 332.733 229.128 335.935C229.128 335.935 225.279 344.902 218.54 346.185C211.801 347.468 217.576 351.31 217.898 351.471C218.219 351.631 229.128 353.394 231.692 352.593C234.256 351.791 244.689 349.878 244.689 349.878C244.689 349.878 244.208 339.307 242.617 338.5C241.027 337.693 241.804 343.299 235.065 336.736Z" fill="#7679B4"/>
<path d="M265.27 236.1C266.624 238.201 268.083 240.232 269.642 242.187C269.791 242.36 269.902 242.562 269.971 242.78C270.039 242.997 270.063 243.227 270.04 243.454C270.017 243.681 269.949 243.901 269.838 244.101C269.728 244.301 269.579 244.477 269.399 244.617L268.772 245.109C268.593 245.249 268.387 245.351 268.168 245.41C267.948 245.469 267.719 245.484 267.493 245.452C267.268 245.421 267.051 245.345 266.856 245.228C266.661 245.111 266.492 244.956 266.358 244.773C264.954 242.83 263.197 241.169 261.178 239.875C260.947 239.732 260.754 239.535 260.616 239.302C260.478 239.068 260.397 238.805 260.382 238.534C260.367 238.264 260.417 237.993 260.528 237.746C260.64 237.498 260.809 237.282 261.022 237.113L262.809 235.707C262.993 235.562 263.205 235.457 263.432 235.398C263.658 235.339 263.895 235.328 264.126 235.364C264.357 235.401 264.578 235.486 264.775 235.612C264.972 235.739 265.141 235.905 265.27 236.1Z" fill="#565388"/>
<path opacity="0.1" d="M301.873 253.684C299.801 250.772 300.194 248.465 300.194 248.465L286.545 250.731C287.493 252.843 288.272 255.027 288.876 257.262C291.161 257.929 293.588 257.948 295.883 257.316C298.179 256.683 300.253 255.426 301.873 253.684Z" fill="black"/>
<path d="M292.336 257.293C299.423 257.293 305.167 251.558 305.167 244.483C305.167 237.408 299.423 231.673 292.336 231.673C285.25 231.673 279.505 237.408 279.505 244.483C279.505 251.558 285.25 257.293 292.336 257.293Z" fill="#FFBDC6"/>
<path opacity="0.1" d="M286.69 237.806C287.902 237.605 288.979 236.896 290.207 236.834C291.761 236.756 293.165 237.749 294.258 238.773C295.351 239.797 296.413 240.966 297.915 241.411C298.875 241.636 299.866 241.702 300.847 241.608C301.393 241.635 301.934 241.498 302.401 241.215C302.636 240.997 302.814 240.725 302.919 240.423C303.338 239.46 303.55 238.42 303.542 237.37C303.534 236.319 303.306 235.283 302.873 234.326C302.751 234.128 302.7 233.894 302.728 233.664C302.774 233.527 302.85 233.402 302.95 233.297C303.986 232.076 305.079 230.856 305.499 229.376C305.919 227.897 305.406 226.077 303.878 225.42C303.496 225.256 303.086 225.172 302.671 225.172C302.256 225.172 301.845 225.256 301.464 225.42C300.749 225.746 300.194 226.351 299.392 226.511C298.091 226.78 296.978 225.736 295.962 224.96C294.38 223.776 292.49 223.072 290.518 222.932C289.655 222.834 288.782 222.949 287.975 223.269C287.22 223.695 286.524 224.217 285.902 224.82C283.587 226.687 280.344 227.209 277.443 228.228C276.889 228.425 276.273 228.714 276.169 229.263C276.065 229.811 276.687 230.364 277.309 230.602C277.93 230.84 278.645 230.995 279.059 231.476C279.577 232.097 279.412 232.976 279.505 233.757C279.697 235.308 281.059 236.151 282.566 236.601C283.815 237 285.452 238.013 286.69 237.806Z" fill="black"/>
<path d="M286.69 237.486C287.902 237.284 288.979 236.575 290.207 236.513C291.761 236.436 293.165 237.429 294.258 238.453C295.351 239.477 296.413 240.646 297.915 241.09C298.875 241.315 299.866 241.381 300.847 241.287C301.393 241.314 301.934 241.177 302.401 240.894C302.636 240.676 302.814 240.405 302.919 240.103C303.338 239.139 303.55 238.099 303.542 237.049C303.534 235.999 303.306 234.962 302.873 234.005C302.751 233.807 302.7 233.574 302.728 233.343C302.774 233.206 302.85 233.081 302.95 232.976C303.986 231.755 305.079 230.535 305.499 229.056C305.919 227.577 305.406 225.756 303.878 225.099C303.496 224.935 303.086 224.851 302.671 224.851C302.256 224.851 301.845 224.935 301.464 225.099C300.749 225.425 300.194 226.03 299.392 226.191C298.091 226.46 296.978 225.415 295.962 224.639C294.396 223.483 292.533 222.794 290.591 222.653C289.728 222.554 288.854 222.67 288.047 222.989C287.293 223.416 286.597 223.938 285.975 224.541C283.659 226.408 280.417 226.93 277.516 227.949C276.962 228.146 276.345 228.435 276.242 228.983C276.138 229.532 276.76 230.085 277.381 230.323C278.003 230.561 278.718 230.716 279.132 231.197C279.65 231.817 279.484 232.697 279.578 233.478C279.769 235.029 281.132 235.872 282.639 236.322C283.815 236.679 285.452 237.693 286.69 237.486Z" fill="#A66477"/>
<path opacity="0.05" d="M276.335 299.112C276.335 299.112 285.498 300.663 287.788 305.602C290.078 310.541 303.847 323.905 303.847 323.905" fill="black"/>
<g opacity="0.05">
<path d="M246.937 318.475C245.492 319.116 231.055 314.632 231.055 314.632C230.878 313.239 230.893 311.828 231.102 310.438C230.273 312.435 230.734 315.755 230.734 315.755C230.734 315.755 245.171 320.239 246.616 319.597C247.093 319.385 247.554 318.154 247.958 316.598C247.637 317.596 247.295 318.33 246.937 318.475Z" fill="black"/>
<path d="M238.577 277.282C238.458 277.607 238.358 277.939 238.276 278.275C238.276 278.275 234.795 299.029 232.718 306.72C234.64 300.477 238.266 279.129 238.577 277.282Z" fill="black"/>
<path d="M259.929 330.649C259.929 330.649 249.18 315.134 249.662 307.894C249.662 307.894 249.548 308.793 249.346 310.066C249.833 317.637 259.608 331.777 259.608 331.777C267.083 331.777 270.424 326.491 271.869 320.942C270.274 326.051 266.902 330.649 259.929 330.649Z" fill="black"/>
</g>
<path d="M232.241 316.215C232.241 316.215 242.042 321.604 245.575 319.039C249.108 316.473 246.86 312.47 246.86 312.47L244.13 307.987H234.987L231.941 313.272L232.241 316.215Z" fill="#7679B4"/>
<path d="M299.076 337.378C299.076 337.378 299.718 324.567 283.354 324.728C266.99 324.888 282.712 324.728 282.712 324.728C282.712 324.728 276.293 322.804 268.274 327.313C260.256 331.823 251.108 330.835 251.108 330.835C251.108 330.835 243.726 343.01 250.626 346.532C257.526 350.054 259.769 345.223 259.769 345.223C259.769 345.223 273.885 347.944 277.096 344.261C279.389 346.53 282.299 348.075 285.464 348.706C288.63 349.337 291.911 349.025 294.9 347.809C294.9 347.809 302.924 344.261 299.076 337.378Z" fill="#7679B4"/>
</g>
<defs>
<linearGradient id="paint0_linear_32_563" x1="284.556" y1="353.953" x2="284.556" y2="220.952" gradientUnits="userSpaceOnUse">
<stop stop-color="#808080" stop-opacity="0.25"/>
<stop offset="0.54" stop-color="#808080" stop-opacity="0.12"/>
<stop offset="1" stop-color="#808080" stop-opacity="0.1"/>
</linearGradient>
<clipPath id="clip0_32_563">
<rect width="513" height="376" fill="white"/>
</clipPath>
</defs>
</svg>
