<svg width="343" height="376" viewBox="0 0 343 376" fill="none" xmlns="http://www.w3.org/2000/svg">
<g clip-path="url(#clip0_32_532)">
<path d="M88.8946 161.993C128.337 161.993 160.311 129.967 160.311 90.4612C160.311 50.9554 128.337 18.9297 88.8946 18.9297C49.4525 18.9297 17.4783 50.9554 17.4783 90.4612C17.4783 129.967 49.4525 161.993 88.8946 161.993Z" fill="#FFCC33"/>
<path d="M195.589 27.6407L58.0349 103.532C42.1449 123.938 344.074 125.2 341.583 103.607L208.197 27.7158C204.4 25.5557 199.422 25.526 195.589 27.6407Z" fill="#00B0FF"/>
<path opacity="0.2" d="M195.589 27.6407L58.0349 103.532C42.1449 123.938 344.074 125.2 341.583 103.607L208.197 27.7158C204.4 25.5557 199.422 25.526 195.589 27.6407Z" fill="black"/>
<path opacity="0.8" d="M341.012 376L306.022 375.253H66.0919L0 373.759C219.114 321.891 151.743 326.357 341.012 376Z" fill="#F2F2F2"/>
<path d="M308.799 373.759L306.022 375.253H66.0919C230.102 341.343 131.773 344.329 308.799 373.759Z" fill="#E6E6E6"/>
<path d="M192.868 21.3053H203.194L199.712 1.64525C199.497 0.43061 198.672 0 198.031 0C197.39 0 196.565 0.43061 196.35 1.64525L192.868 21.3053Z" fill="#3F3D56"/>
<path d="M203.274 86.1726H191.889V364.318H203.274V86.1726Z" fill="#3F3D56"/>
<path d="M197.614 129.593C192.757 129.593 188.19 127.709 184.738 124.276L156.003 95.7013L158.35 93.3328L187.085 121.908C189.943 124.749 193.714 126.3 197.76 126.255C201.786 126.217 205.547 124.602 208.35 121.707L235.809 93.355L238.201 95.6791L210.742 124.031C207.314 127.571 202.715 129.546 197.791 129.593C197.732 129.593 197.673 129.593 197.614 129.593V129.593Z" fill="#3F3D56"/>
<path d="M201.595 107.778C187.456 107.778 173.205 107.729 159.374 107.631C130.068 107.423 105.047 107.01 87.0176 106.439C56.2861 105.464 55.9589 104.357 55.8189 103.884C55.7869 103.775 55.7757 103.563 56.0651 103.372L193.242 13.0165C196.54 10.8382 200.785 10.8678 204.055 13.0941L342.741 103.447C343.031 103.643 343.016 103.856 342.982 103.965C342.809 104.52 342.284 106.21 281.39 107.203C258.222 107.581 230.143 107.778 201.595 107.778Z" fill="#00B0FF"/>
<path d="M228.006 241.846L210.62 241.865C208.674 246.198 211.334 251.266 214.735 254.579C218.136 257.892 222.401 260.433 224.912 264.465C230.486 273.41 225.234 285.174 227.075 295.556C229.553 309.536 244.186 318.334 248.642 331.812C251.162 339.437 250.016 348.189 245.618 354.905C244.806 356.145 243.869 357.369 243.585 358.825C243.198 360.803 244.238 362.977 246.02 363.915C247.802 364.853 250.179 364.478 251.587 363.038C250.212 364.603 250.663 367.246 252.207 368.645C253.751 370.044 256.051 370.342 258.088 369.911C264.689 368.515 268.012 360.877 268.279 354.125C268.546 347.372 266.855 340.53 268.175 333.903C269.017 343.414 279.761 349.454 280.602 358.965C280.759 360.728 271.034 366.03 271.939 367.549C274.226 371.391 279.679 371.404 284.121 370.944C291.769 370.151 300.262 368.917 305.059 362.899C308.291 358.844 309.129 353.387 309.235 348.2C309.513 334.657 305.485 321.059 297.879 309.859C287.756 294.953 271.663 284.388 263.716 268.213C261.015 262.715 259.362 256.754 256.734 251.221C254.106 245.688 250.241 240.394 244.648 237.911C239.056 235.428 231.527 236.653 228.3 241.858" fill="#3F3D56"/>
<path d="M281.915 360.848C281.568 360.848 281.229 360.774 280.91 360.625C280.662 360.509 280.554 360.213 280.67 359.964C280.786 359.715 281.081 359.607 281.329 359.724C281.877 359.979 282.404 359.812 282.75 359.626C283.46 359.245 284.016 358.464 284.134 357.683C284.362 356.173 283.607 354.631 282.941 353.271C280.998 349.304 279.077 345.056 278.788 340.567C278.463 335.505 280.549 330.79 284.103 328.555C286.745 326.894 290.237 326.459 293.937 327.33C297.107 328.077 300.027 329.643 302.988 331.318C303.227 331.453 303.311 331.757 303.176 331.996C303.041 332.235 302.739 332.319 302.5 332.184C299.493 330.482 296.756 329.016 293.71 328.298C290.27 327.488 287.046 327.878 284.631 329.397C281.382 331.441 279.477 335.8 279.779 340.503C280.056 344.81 281.933 348.956 283.832 352.833C284.526 354.251 285.39 356.015 285.115 357.831C284.95 358.924 284.206 359.972 283.219 360.502C282.791 360.732 282.347 360.848 281.915 360.848Z" fill="#2F2E41"/>
<path d="M252.991 250.498C255.542 255.568 254.196 262.303 249.892 265.999C248.967 266.793 247.927 267.457 247.1 268.353C246.274 269.248 245.667 270.461 245.876 271.662C243.056 268.86 240.181 265.982 238.475 262.389C236.77 258.796 236.437 254.286 238.656 250.987C239.715 249.413 241.259 248.232 242.46 246.765C243.662 245.298 244.529 243.299 243.879 241.517" fill="#2F2E41"/>
<path d="M303.7 347.89C302.351 352.02 304.572 356.772 308.214 359.132C311.857 361.491 316.564 361.736 320.77 360.668C328.901 358.604 335.58 351.63 337.301 343.406C338.017 339.986 337.966 336.321 339.587 333.226C340.606 331.281 342.287 329.523 342.335 327.327C342.375 325.543 341.218 323.849 339.641 323.019C338.063 322.189 336.141 322.16 334.443 322.7C330.395 323.989 327.91 328.095 326.622 332.149C325.334 336.203 324.854 340.538 322.982 344.357C321.11 348.176 317.24 351.511 313.033 350.928C309.394 350.424 306.315 347.138 302.669 347.586" fill="#3F3D56"/>
<path d="M100.372 296.355C95.4497 297.11 91.8493 300.266 92.33 303.404C92.8106 306.541 97.1897 308.471 102.113 307.714C104.084 307.439 105.961 306.695 107.585 305.545L143.19 300.172L144.532 287.852L106.243 296.782C104.348 296.172 102.335 296.025 100.372 296.355H100.372Z" fill="#FFB6B6"/>
<path d="M190.063 270.668L181.992 287.821L141.42 301.501L143.397 287.56L180.837 269.838L190.063 270.668Z" fill="#E6E6E6"/>
<path d="M115.233 335.799L107.987 354.156L98.6103 347.753L104.151 328.542L115.233 335.799Z" fill="#FFB6B6"/>
<path d="M84.9713 328.969L65.7913 347.326L73.4633 355.437L93.0694 340.068L84.9713 328.969Z" fill="#FFB6B6"/>
<path d="M193.657 269.202L193.444 267.707L188.543 258.102L172.346 262.371L175.33 275.605L193.657 269.202Z" fill="#FFB6B6"/>
<path d="M186.838 333.238L187.336 339.65C187.336 339.65 189.395 366.537 172.773 368.671C156.15 370.806 148.904 372.94 139.101 356.291L123.757 328.969L114.795 339.65L102.872 330.249C102.872 330.249 111.397 296.951 118.216 295.67C119.069 295.51 119.921 295.43 120.76 295.412C126.406 295.294 131.728 298.06 135.106 302.593L154.445 328.542L161.478 325.34L186.838 333.238V333.238Z" fill="#2F2E41"/>
<path d="M94.7743 353.303L99.0811 346.937L108.965 351.637C108.965 351.637 112.249 363.121 108.413 364.402C104.577 365.683 93.9219 363.975 93.9219 363.975C93.9219 363.975 74.3157 368.244 73.8895 364.402C73.4633 360.56 82.8401 359.706 82.8401 359.706L94.7743 353.303L94.7743 353.303L94.7743 353.303Z" fill="#FFB6B6"/>
<path d="M136.544 348.18L106.922 329.485L91.7908 343.057L81.5615 331.103C81.5615 331.103 100.315 303.354 105.856 302.074C111.397 300.793 120.348 299.939 120.348 299.939L147.626 325.127L136.544 348.18V348.18L136.544 348.18Z" fill="#2F2E41"/>
<path d="M67.8565 345.687L74.1206 354.637L73.8754 357.399C73.8754 357.399 71.3322 368.493 65.3651 364.74C59.398 360.987 58.9718 360.133 58.9718 360.133C58.9718 360.133 41.923 363.975 40.2181 357.145C38.5132 350.314 43.2017 351.595 43.2017 351.595L47.4588 354.156L64.0533 348.6L67.8565 345.687V345.687Z" fill="#FFB6B6"/>
<path d="M177.461 267.067C184.994 267.067 191.1 260.951 191.1 253.406C191.1 245.861 184.994 239.745 177.461 239.745C169.928 239.745 163.822 245.861 163.822 253.406C163.822 260.951 169.928 267.067 177.461 267.067Z" fill="#FFB6B6"/>
<path d="M174.264 272.83L193.871 266.854C193.871 266.854 201.543 284.784 200.264 292.895C198.985 301.006 187.336 339.65 187.336 339.65L161.478 325.34C161.478 325.34 161.052 316.802 159.773 312.96C158.494 309.117 154.445 297.377 163.396 287.559C172.346 277.74 174.264 272.83 174.264 272.83L174.264 272.83Z" fill="#E6E6E6"/>
<path d="M131.113 362.473C127.922 366.302 127.308 371.055 129.741 373.088C132.174 375.122 136.732 373.666 139.924 369.835C141.219 368.323 142.135 366.521 142.593 364.582L172.797 330.659L163.437 325.591L135.797 358.902C133.973 359.7 132.367 360.925 131.113 362.473L131.113 362.473V362.473Z" fill="#FFB6B6"/>
<path d="M189.303 281.443L193.937 299.829L171.256 336.194L173.303 335.726L160.907 326.604L163.949 324.164L181.649 286.668L189.303 281.443Z" fill="#E6E6E6"/>
<path d="M164.888 251.058C168.385 251.05 168.584 251.073 169.15 251.058C173.488 250.943 174.623 249.234 176.822 249.35C180.747 249.558 175.566 269.268 173.412 278.38C171.299 287.317 178.44 295.324 178.953 295.883C186.201 303.779 198.932 305.222 201.116 301.86C202.884 299.139 196.618 295.001 198.133 289.053C199.613 283.238 206.451 283.858 208.362 278.38C210.364 272.644 203.637 269.751 199.411 255.754C196.984 247.716 197.414 246.218 195.149 241.239C189.096 227.931 159.426 233.597 162.756 245.935C163.401 248.322 161.686 251.066 164.888 251.058V251.058Z" fill="#2F2E41"/>
</g>
<defs>
<clipPath id="clip0_32_532">
<rect width="343" height="376" fill="white"/>
</clipPath>
</defs>
</svg>
