<svg width="405" height="376" viewBox="0 0 405 376" fill="none" xmlns="http://www.w3.org/2000/svg">
<g clip-path="url(#clip0_32_484)">
<path d="M200.6 376C311.388 376 401.2 369.97 401.2 362.532C401.2 355.094 311.388 349.064 200.6 349.064C89.8116 349.064 0 355.094 0 362.532C0 369.97 89.8116 376 200.6 376Z" fill="#3F3D56"/>
<path d="M203.962 215.504H197.238V219.432H203.962V215.504Z" fill="#3F3D56"/>
<path d="M217.41 215.504H210.686V219.432H217.41V215.504Z" fill="#3F3D56"/>
<path d="M230.858 215.504H224.134V219.432H230.858V215.504Z" fill="#3F3D56"/>
<path d="M244.306 215.504H237.582V219.432H244.306V215.504Z" fill="#3F3D56"/>
<path d="M257.754 215.504H251.03V219.432H257.754V215.504Z" fill="#3F3D56"/>
<path d="M271.202 215.504H264.478V219.432H271.202V215.504Z" fill="#3F3D56"/>
<path d="M284.65 215.504H277.926V219.432H284.65V215.504Z" fill="#3F3D56"/>
<path d="M298.098 215.504H291.374V219.432H298.098V215.504Z" fill="#3F3D56"/>
<path d="M311.546 215.504H304.822V219.432H311.546V215.504Z" fill="#3F3D56"/>
<path d="M324.994 215.504H318.27V219.432H324.994V215.504Z" fill="#3F3D56"/>
<path d="M338.442 215.504H331.718V219.432H338.442V215.504Z" fill="#3F3D56"/>
<path d="M353.851 218.029C353.851 239.461 345.35 260.015 330.218 275.17C315.086 290.325 294.563 298.838 273.163 298.838C251.763 298.838 231.24 290.325 216.108 275.17C200.976 260.015 192.475 239.461 192.475 218.029H353.851Z" fill="#3F3D56"/>
<path d="M349.952 218.546L298.625 65.3226C308.67 61.94 319.283 60.5738 329.856 61.3022C340.429 62.0306 350.755 64.8393 360.243 69.5676C369.731 74.2959 378.196 80.851 385.152 88.8582C392.109 96.8653 397.421 106.167 400.785 116.232C401.329 117.854 401.822 119.487 402.259 121.12C407.542 140.976 405.074 162.102 395.357 180.2C385.64 198.299 369.404 212.01 349.952 218.546Z" fill="#3F3D56"/>
<path d="M351.89 230.656C357.461 230.656 361.976 226.133 361.976 220.555C361.976 214.976 357.461 210.454 351.89 210.454C346.32 210.454 341.804 214.976 341.804 220.555C341.804 226.133 346.32 230.656 351.89 230.656Z" fill="#3F3D56"/>
<path d="M249.349 239.073C248.606 239.073 247.894 239.369 247.368 239.895C246.843 240.422 246.548 241.135 246.548 241.879C246.548 242.624 246.843 243.337 247.368 243.863C247.894 244.39 248.606 244.685 249.349 244.685H297.538C298.281 244.685 298.994 244.39 299.519 243.863C300.045 243.337 300.34 242.624 300.34 241.879C300.34 241.135 300.045 240.422 299.519 239.895C298.994 239.369 298.281 239.073 297.538 239.073H249.349Z" fill="#00B0FF"/>
<path d="M340.123 364.215L330.09 364.587L293.943 286.732L303.088 282.473L340.123 364.215Z" fill="#3F3D56"/>
<path d="M206.203 364.215L216.237 364.587L252.384 286.732L243.238 282.473L206.203 364.215Z" fill="#3F3D56"/>
<path d="M314.908 319.321H231.979V324.933H314.908V319.321Z" fill="#3F3D56"/>
<path d="M300.676 62.4619C300.282 62.4621 299.894 62.5547 299.542 62.7324C299.19 62.9101 298.885 63.1679 298.65 63.4851C298.416 63.8023 298.259 64.1701 298.192 64.559C298.125 64.9479 298.15 65.3471 298.265 65.7246L300.391 72.7023C300.587 73.3423 301.028 73.8784 301.618 74.1927C302.208 74.507 302.899 74.5738 303.538 74.3785C304.178 74.1832 304.713 73.7417 305.028 73.151C305.342 72.5603 305.41 71.8688 305.215 71.2284L303.089 64.2507C302.931 63.7333 302.611 63.2804 302.177 62.9585C301.743 62.6366 301.217 62.4625 300.676 62.4619Z" fill="#00B0FF"/>
<path d="M189.113 219.432C188.444 219.432 187.803 219.698 187.33 220.172C186.857 220.646 186.591 221.288 186.591 221.958C186.591 222.627 186.857 223.27 187.33 223.743C187.803 224.217 188.444 224.483 189.113 224.483H196.397C197.066 224.483 197.707 224.217 198.18 223.743C198.653 223.27 198.919 222.627 198.919 221.958C198.919 221.288 198.653 220.646 198.18 220.172C197.707 219.698 197.066 219.432 196.397 219.432H189.113Z" fill="#00B0FF"/>
<path d="M249.349 200.914H219.091C218.9 200.914 218.716 200.919 218.531 200.936C216.554 201.077 214.704 201.963 213.352 203.415C212.001 204.867 211.248 206.777 211.246 208.762C211.244 210.747 211.992 212.659 213.341 214.114C214.689 215.569 216.537 216.458 218.514 216.604C218.704 216.621 218.895 216.626 219.091 216.626H249.349C251.43 216.626 253.425 215.799 254.896 214.325C256.367 212.852 257.194 210.854 257.194 208.77C257.194 206.686 256.367 204.688 254.896 203.215C253.425 201.741 251.43 200.914 249.349 200.914Z" fill="#FF6584"/>
<path opacity="0.2" d="M216.043 216.004C221.198 215.341 225.255 208.826 225.255 200.914H224.134C224.134 208.652 220.111 214.943 215.169 214.943V215.571L216.043 216.004Z" fill="black"/>
<path opacity="0.2" d="M226.936 216.065V214.943C231.879 214.943 235.901 208.649 235.901 200.914H237.022C237.022 209.268 232.497 216.065 226.936 216.065Z" fill="black"/>
<path opacity="0.2" d="M238.703 216.065V214.943C243.646 214.943 247.668 208.649 247.668 200.914H248.789C248.789 209.268 244.264 216.065 238.703 216.065Z" fill="black"/>
<path d="M304.262 200.914H274.004C273.813 200.914 273.628 200.919 273.443 200.936C271.467 201.077 269.616 201.963 268.265 203.415C266.914 204.867 266.161 206.777 266.159 208.762C266.157 210.747 266.905 212.659 268.253 214.114C269.602 215.569 271.45 216.458 273.427 216.604C273.617 216.621 273.808 216.626 274.004 216.626H304.262C306.342 216.626 308.338 215.799 309.809 214.325C311.28 212.852 312.107 210.854 312.107 208.77C312.107 206.686 311.28 204.688 309.809 203.215C308.338 201.741 306.342 200.914 304.262 200.914Z" fill="#FF6584"/>
<path opacity="0.2" d="M270.956 216.004C276.111 215.341 280.167 208.826 280.167 200.914H279.047C279.047 208.652 275.024 214.943 270.081 214.943V215.571L270.956 216.004Z" fill="black"/>
<path opacity="0.2" d="M281.848 216.065V214.943C286.792 214.943 290.814 208.649 290.814 200.914H291.934C291.934 209.268 287.41 216.065 281.848 216.065Z" fill="black"/>
<path opacity="0.2" d="M293.615 216.065V214.943C298.559 214.943 302.581 208.649 302.581 200.914H303.701C303.701 209.268 299.177 216.065 293.615 216.065Z" fill="black"/>
<path d="M247.135 125.467C243.169 123.322 238.267 125.662 236.29 129.46C233.887 134.079 235.879 139.633 238.682 143.581C241.595 147.684 245.548 151.071 247.492 155.812C249.352 160.275 249.572 165.253 248.114 169.862C246.656 174.472 243.614 178.415 239.528 180.99C237.704 182.146 239.389 185.061 241.225 183.898C245.232 181.391 248.403 177.744 250.332 173.424C252.26 169.104 252.86 164.306 252.053 159.643C251.644 157.225 250.864 154.885 249.74 152.706C248.522 150.482 247.054 148.404 245.365 146.513C242.448 143.056 238.777 139.245 238.594 134.435C238.56 133.811 238.604 133.185 238.723 132.572C238.81 132.144 238.94 131.725 239.111 131.322C239.519 130.458 240.124 129.702 240.877 129.115C241.576 128.558 242.402 128.183 243.282 128.025C244.019 127.916 244.772 128.038 245.438 128.375C247.341 129.405 249.041 126.499 247.135 125.467Z" fill="#E6E6E6"/>
<path d="M297.723 145.834C296.035 145.291 294.231 145.216 292.503 145.618C290.776 146.021 289.189 146.884 287.913 148.118C287.254 148.797 286.765 149.624 286.488 150.53C286.211 151.436 286.153 152.395 286.32 153.328C286.64 155.368 287.927 157.181 289.322 158.641C292.053 161.499 295.874 163.346 298.164 166.627C299.179 168.025 299.816 169.662 300.013 171.379C300.131 172.922 299.848 174.47 299.193 175.871C297.485 179.348 294.094 181.713 290.518 183.235C289.683 183.591 289.498 184.825 289.915 185.539C290.148 185.915 290.517 186.188 290.945 186.3C291.373 186.413 291.828 186.356 292.215 186.143C298.796 183.341 304.884 177.066 303.069 169.357C302.114 165.301 299.188 162.439 296.037 159.951C294.472 158.802 292.994 157.538 291.614 156.171C290.525 155.012 289.393 153.43 289.593 151.859C289.673 151.313 289.94 150.811 290.348 150.44C290.843 149.987 291.405 149.613 292.014 149.331C292.76 148.973 293.57 148.767 294.397 148.724C295.223 148.681 296.05 148.802 296.83 149.081C297.26 149.196 297.717 149.137 298.104 148.917C298.49 148.697 298.776 148.334 298.898 147.905C299.007 147.475 298.946 147.019 298.727 146.633C298.508 146.247 298.148 145.961 297.723 145.834V145.834Z" fill="#E6E6E6"/>
<path d="M272.13 97.9386C271.128 97.0815 269.863 96.5938 268.546 96.5566C267.297 96.5801 266.083 96.9733 265.056 97.6867C262.738 99.3733 261.098 101.834 260.432 104.625C258.733 111.142 260.949 118.167 264.028 123.906C265.585 126.808 267.398 129.562 268.964 132.458C270.475 135.228 271.635 138.175 272.417 141.232C274.012 147.501 274.155 154.052 272.833 160.384C271.488 166.687 268.657 172.927 263.842 177.276C263.527 177.592 263.35 178.02 263.35 178.467C263.35 178.913 263.527 179.341 263.842 179.657C264.158 179.973 264.585 180.15 265.031 180.15C265.477 180.15 265.904 179.973 266.22 179.657C270.493 175.797 273.351 170.503 275.077 165.058C276.98 158.909 277.537 152.422 276.709 146.038C276.335 142.858 275.612 139.73 274.554 136.71C273.407 133.667 271.975 130.739 270.277 127.967C267.117 122.616 263.754 117.205 263.296 110.833C263.071 107.7 263.463 104.435 265.398 101.915C265.292 102.053 265.483 101.815 265.484 101.814C265.601 101.673 265.723 101.536 265.849 101.403C266.089 101.145 266.347 100.904 266.621 100.683C266.563 100.729 266.414 100.829 266.685 100.641C266.819 100.547 266.957 100.457 267.098 100.374C267.213 100.307 267.331 100.247 267.449 100.184C267.519 100.148 267.59 100.115 267.661 100.083C267.498 100.154 267.507 100.154 267.689 100.085C267.821 100.044 268.472 99.9029 268.11 99.9487C268.231 99.9343 268.352 99.9264 268.473 99.925C268.525 99.9241 268.978 99.9473 268.757 99.9231C268.498 99.8947 268.962 99.9692 268.965 99.97C269.11 100.005 269.253 100.051 269.392 100.105C269.042 99.9654 269.965 100.485 269.752 100.319C270.074 100.622 270.499 100.791 270.941 100.791C271.383 100.791 271.808 100.622 272.13 100.319C272.71 99.7386 272.85 98.4998 272.13 97.9386L272.13 97.9386Z" fill="#E6E6E6"/>
<path d="M143.047 350.959L130.373 354.326L107.095 246.569L133.218 244.237L143.047 350.959Z" fill="#FFB9B9"/>
<path d="M85.0611 352.615L72.096 354.577L60.7016 244.918L86.9225 245.457L85.0611 352.615Z" fill="#FFB9B9"/>
<path d="M78.3857 196.575L79.5829 218.956C79.6269 219.779 79.4936 220.602 79.1919 221.369C78.8902 222.136 78.4273 222.829 77.8346 223.401C77.2418 223.973 76.5331 224.411 75.7566 224.684C74.9801 224.957 74.1539 225.06 73.3342 224.986C71.9943 224.864 70.7399 224.274 69.7902 223.32C68.8404 222.366 68.2556 221.108 68.1381 219.765L65.9707 195.021L48.9001 136.998L49.4174 99.697L69.5918 100.733L78.3857 196.575Z" fill="#FFB9B9"/>
<path d="M89.2488 251.49C79.1434 247.977 67.4181 247.286 54.0731 249.418C55.9657 226.966 57.0617 206.116 56.1422 189.323H124.942L89.2488 251.49Z" fill="#2F2E41"/>
<path d="M137.357 250.972C126.941 256.49 111.875 259.132 94.4217 260.297L72.6955 190.877L125.976 189.841L137.357 250.972Z" fill="#2F2E41"/>
<path d="M164.177 362.224L126.696 363.614C121.895 363.792 121.642 359.663 122.548 354.938L126.985 342.248C136.976 352.05 137.917 352.598 142.199 338.654L155.27 348.993L164.945 350.655C166.3 350.887 167.529 351.593 168.414 352.646C169.299 353.699 169.784 355.032 169.781 356.409C169.779 357.916 169.194 359.363 168.149 360.447C167.104 361.532 165.68 362.168 164.177 362.224Z" fill="#2F2E41"/>
<path d="M107.41 362.224L69.9288 363.614C65.1276 363.792 64.8744 359.663 65.7808 354.938L70.2182 342.248C80.2087 352.05 81.1495 352.598 85.4322 338.654L98.5028 348.993L108.178 350.655C109.533 350.887 110.761 351.593 111.647 352.646C112.532 353.699 113.016 355.032 113.014 356.409C113.012 357.916 112.427 359.363 111.382 360.447C110.337 361.532 108.913 362.168 107.41 362.224Z" fill="#2F2E41"/>
<path d="M116.148 44.7822C127.29 44.7822 136.322 35.7363 136.322 24.5776C136.322 13.4189 127.29 4.37305 116.148 4.37305C105.006 4.37305 95.9736 13.4189 95.9736 24.5776C95.9736 35.7363 105.006 44.7822 116.148 44.7822Z" fill="#FFB9B9"/>
<path d="M105.802 60.324L82.0067 53.0714L98.0429 29.24L116.148 37.0111L105.802 60.324Z" fill="#FFB9B9"/>
<path d="M128.046 195.539C103.584 201.047 76.43 198.862 53.0385 192.431C58.6401 161.148 55.9357 127.546 50.452 100.215C46.1598 78.8226 57.4824 60.8714 76.3165 52.035C80.3648 50.5811 84.5764 49.6313 88.8562 49.2071C102.068 48.0348 113.693 57.9559 115.071 71.1673L128.046 195.539Z" fill="#00B0FF"/>
<path d="M64.4189 110.577L47.3483 108.504L52.5213 81.5649H64.4189V110.577Z" fill="#00B0FF"/>
<path d="M115.866 27.7768L112.775 26.4012C112.075 26.0905 111.315 25.9359 110.55 25.9483C109.784 25.9608 109.03 26.1398 108.34 26.4731C107.65 26.8063 107.041 27.2858 106.554 27.8784C106.068 28.4709 105.716 29.1623 105.523 29.9046L101.216 37.6985L90.4882 35.9979L90.8629 19.499C91.3514 16.3812 92.4736 13.3969 94.1601 10.731C95.8465 8.065 98.0614 5.77404 100.668 3.9999C103.274 2.22576 106.216 1.00619 109.312 0.416677C112.407 -0.172842 115.591 -0.119761 118.666 0.572632L118.958 0.638972C124.196 1.82549 130.994 5.67638 134.544 9.71882L141.156 17.2506C141.47 17.608 141.68 18.0445 141.763 18.5129C141.846 18.9812 141.799 19.4635 141.628 19.9071C141.457 20.3508 141.167 20.739 140.791 21.0294C140.415 21.3199 139.966 21.5015 139.494 21.5545L130.45 22.554L115.866 27.7768Z" fill="#2F2E41"/>
<path d="M182.782 165.567L171.197 175.744C171.03 175.891 170.811 175.965 170.589 175.95C170.366 175.935 170.159 175.833 170.012 175.665C169.865 175.498 169.791 175.278 169.805 175.056C169.82 174.833 169.922 174.625 170.089 174.478L181.673 164.302L179.456 161.77L167.872 171.947C167.704 172.094 167.485 172.168 167.263 172.153C167.041 172.139 166.833 172.036 166.687 171.868C166.54 171.701 166.465 171.481 166.48 171.259C166.494 171.036 166.596 170.828 166.764 170.681L178.348 160.505L176.131 157.973L164.547 168.15C164.464 168.223 164.367 168.279 164.263 168.314C164.158 168.35 164.047 168.365 163.937 168.357C163.827 168.35 163.719 168.321 163.62 168.272C163.521 168.224 163.433 168.156 163.36 168.072C163.287 167.989 163.231 167.893 163.196 167.788C163.16 167.683 163.146 167.572 163.153 167.462C163.16 167.352 163.189 167.244 163.238 167.145C163.287 167.045 163.355 166.957 163.438 166.884L175.022 156.708L172.251 153.544L155.881 167.925C154.419 169.209 153.443 170.957 153.114 172.876C152.786 174.795 153.126 176.768 154.077 178.467L104.652 221.884L109.086 226.947L158.479 183.557C159.985 184.749 161.861 185.374 163.78 185.324C165.699 185.275 167.54 184.554 168.983 183.287L185.553 168.731L182.782 165.567Z" fill="#E6E6E6"/>
<path d="M126.494 196.575L127.691 218.956C127.735 219.779 127.602 220.602 127.3 221.369C126.998 222.136 126.535 222.829 125.943 223.401C125.35 223.973 124.641 224.411 123.865 224.684C123.088 224.957 122.262 225.06 121.442 224.986C120.102 224.864 118.848 224.274 117.898 223.32C116.948 222.366 116.364 221.108 116.246 219.765L114.079 195.021L97.0081 136.998L97.5254 99.697L117.7 100.733L126.494 196.575Z" fill="#FFB9B9"/>
<path d="M119.252 106.432C113.113 100.535 105.011 100.318 95.9736 102.806V74.9636C95.9736 71.6306 97.2956 68.4341 99.6489 66.0773C102.002 63.7205 105.194 62.3965 108.522 62.3965C110.054 62.3965 111.57 62.7032 112.982 63.2986C114.393 63.8939 115.672 64.766 116.742 65.8634C117.812 66.9608 118.653 68.2614 119.214 69.6888C119.775 71.1162 120.045 72.6415 120.009 74.1751L119.252 106.432Z" fill="#00B0FF"/>
</g>
<defs>
<clipPath id="clip0_32_484">
<rect width="405" height="376" fill="white"/>
</clipPath>
</defs>
</svg>
