<svg width="520" height="376" viewBox="0 0 520 376" fill="none" xmlns="http://www.w3.org/2000/svg">
<g clip-path="url(#clip0_32_736)">
<path d="M104.883 230.84C103.985 230.881 103.095 230.645 102.335 230.163C101.575 229.681 100.982 228.977 100.635 228.146C100.288 227.315 100.204 226.398 100.396 225.518C100.587 224.637 101.044 223.838 101.704 223.226C101.815 222.786 101.894 222.47 102.005 222.029C101.965 221.934 101.925 221.838 101.885 221.742C97.8467 212.099 84.1596 212.165 80.1555 221.823C76.6015 230.395 72.0766 238.981 70.9625 248.044C70.4718 252.05 70.6788 256.111 71.5742 260.047C63.2268 241.812 58.8923 221.994 58.8644 201.935C58.8626 196.901 59.1419 191.871 59.7009 186.869C60.1628 182.768 60.8038 178.697 61.6237 174.654C66.0977 152.72 75.7036 132.161 89.6526 114.667C96.4039 110.978 101.864 105.305 105.296 98.4135C106.54 95.9361 107.419 93.2914 107.906 90.5619C107.144 90.6619 106.37 90.7244 105.609 90.7744C105.371 90.7868 105.122 90.7993 104.884 90.8119L104.795 90.8159C103.958 90.8535 103.128 90.6481 102.405 90.2242C101.682 89.8004 101.096 89.1764 100.719 88.4272C100.342 87.678 100.189 86.8356 100.279 86.0014C100.369 85.1672 100.698 84.3768 101.226 83.7253C101.554 83.3201 101.883 82.915 102.213 82.5102C102.712 81.885 103.224 81.2724 103.723 80.6473C103.781 80.588 103.835 80.5253 103.886 80.4597C104.46 79.747 105.034 79.0469 105.609 78.3343C104.56 76.7049 103.15 75.34 101.489 74.346C95.7329 70.9703 87.7924 73.3083 83.6348 78.5219C79.4648 83.7353 78.6783 91.0495 80.1265 97.5633C81.3626 103.139 84.0593 108.253 87.0932 113.116C86.781 113.516 86.4564 113.904 86.1443 114.304C80.4386 121.651 75.4656 129.541 71.2967 137.859C72.4762 128.633 70.7348 117.518 67.7662 110.353C64.3869 102.19 58.053 95.3145 52.4752 88.2571C45.7753 79.7801 32.0367 83.4797 30.8563 94.2256C30.8449 94.3296 30.8337 94.4336 30.8228 94.5376C31.6513 95.0057 32.4623 95.5025 33.2558 96.028C34.2526 96.6949 35.0251 97.6478 35.4718 98.7619C35.9186 99.876 36.0189 101.099 35.7596 102.271C35.5002 103.443 34.8934 104.51 34.0186 105.331C33.1437 106.151 32.0417 106.688 30.8568 106.871L30.7355 106.89C31.0306 109.88 31.5523 112.844 32.2961 115.755C34.4512 123.881 38.2596 131.474 43.4824 138.057C48.7052 144.641 55.2299 150.072 62.6473 154.012C63.1342 154.262 63.6087 154.512 64.0957 154.75C59.9072 166.636 57.2799 179.018 56.28 191.583C55.7139 198.995 55.7473 206.442 56.3799 213.85C56.3674 213.762 56.3549 213.674 56.3424 213.587C54.7442 205.35 50.3563 197.918 43.9197 192.545C34.3597 184.681 20.8533 181.785 10.5398 175.464C5.5752 172.421 -0.786599 176.353 0.0798625 182.117C0.0937036 182.209 0.107759 182.301 0.122039 182.393C1.65947 183.02 3.15641 183.743 4.60415 184.556C5.43263 185.024 6.24363 185.521 7.03711 186.046C8.03394 186.713 8.80634 187.666 9.2531 188.78C9.69986 189.894 9.80015 191.118 9.54084 192.29C9.28152 193.462 8.67469 194.528 7.79985 195.349C6.92501 196.17 5.82296 196.707 4.63811 196.89L4.51668 196.909C4.42931 196.921 4.35436 196.934 4.2671 196.946C6.89402 203.227 10.581 209.009 15.1665 214.037C20.8312 220.124 27.6777 224.988 35.2863 228.331C42.8949 231.674 51.1051 233.426 59.4137 233.479H59.4262C61.6816 243.293 64.9495 252.846 69.1771 261.984H104.01C104.135 261.597 104.248 261.197 104.36 260.809C101.136 261.012 97.899 260.819 94.7216 260.234C97.306 257.059 99.8904 253.858 102.475 250.682C102.532 250.623 102.587 250.56 102.637 250.495C103.948 248.869 105.271 247.257 106.582 245.631L106.583 245.629C106.653 240.647 106.082 235.677 104.884 230.841L104.883 230.84Z" fill="#F2F2F2"/>
<path d="M519.176 263.311L0.998513 263.524C0.77997 263.524 0.570381 263.437 0.415847 263.282C0.261314 263.127 0.1745 262.917 0.1745 262.699C0.1745 262.48 0.261314 262.27 0.415847 262.115C0.570381 261.96 0.77997 261.873 0.998513 261.873L519.176 261.66C519.395 261.66 519.604 261.747 519.759 261.902C519.913 262.057 520 262.267 520 262.486C520 262.704 519.913 262.914 519.759 263.069C519.604 263.224 519.395 263.311 519.176 263.311Z" fill="#CACACA"/>
<path d="M439.325 262.788C415.73 263.788 402.389 263.06 385.19 248.11C373.48 247.798 364.171 239.318 364.44 229.206C364.708 219.094 374.454 211.121 386.164 211.433L428.682 213.452C440.392 213.763 462.169 213.042 461.901 223.154C461.769 228.119 461.767 234.557 461.307 241.302C460.928 246.965 458.476 252.29 454.419 256.255C450.363 260.22 444.988 262.546 439.325 262.788Z" fill="#2F2E41"/>
<path d="M363.54 357.443L351.358 359.437L337.884 313.331L355.863 310.389L363.54 357.443Z" fill="#FFB6B6"/>
<path d="M358.7 261.305C381.413 266.897 398.184 260.599 411.998 261.416C419.85 248.148 444.915 231.294 431.239 224.2C423.623 220.249 346.199 211.142 336.035 221.653C309.899 248.681 342.349 334.038 342.349 334.038L360.398 333.805L366.164 325.563L361.519 316.58L365.913 309.236L360.885 301.671L358.7 261.305Z" fill="#2F2E41"/>
<path d="M371.919 366.656L363.938 368.796L360.496 361.632L358.865 370.156L337.697 375.832C336.682 376.104 335.608 376.044 334.629 375.661C333.651 375.278 332.821 374.592 332.259 373.703C331.698 372.814 331.435 371.768 331.509 370.719C331.583 369.67 331.99 368.672 332.671 367.871L346.449 351.647L344.409 344.019L362.473 340.314L371.919 366.656Z" fill="#2F2E41"/>
<path d="M463.373 342.416L454.482 350.991L417.222 320.732L430.344 308.076L463.373 342.416Z" fill="#FFB6B6"/>
<path d="M391.702 247.082C412.523 255.113 430.732 246.182 448.723 235.829C447.65 220.443 447.051 198.258 431.772 200.208C423.264 201.294 352.94 212.93 350.546 227.364C344.388 264.479 432.652 335.225 432.652 335.225L447.368 324.758L447.432 314.695L438.512 309.949L437.957 301.406L429.526 298.045L391.702 247.082Z" fill="#2F2E41"/>
<path d="M475.496 345.225L470.145 351.529L463.246 347.595L466.743 355.536L452.551 372.256C451.871 373.058 450.952 373.621 449.93 373.862C448.908 374.104 447.835 374.013 446.869 373.601C445.902 373.189 445.093 372.478 444.558 371.573C444.023 370.668 443.791 369.615 443.896 368.568L446.021 347.378L440.013 342.263L452.77 328.932L475.496 345.225Z" fill="#2F2E41"/>
<path d="M380.725 216.471C379.258 216.471 378.425 216.183 378.102 215.565C377.629 214.659 374.607 213.475 375.558 212.103C376.221 211.147 377.822 209.867 377.206 209.13C374.831 206.291 368.904 124.856 367.507 113.746C367.164 110.308 367.629 106.836 368.866 103.61C372.779 92.508 378.12 89.0958 388.761 82.2992C389.625 81.7474 390.524 81.171 391.459 80.5702C392.669 79.7917 392.601 81.6097 392.53 78.8765C392.451 75.8389 392.369 72.6975 393.855 70.7341L393.952 70.6061L394.108 70.5698C397.702 69.7377 409.791 68.1929 416.951 70.581L417.049 70.6147L417.123 70.6883C418.824 72.3913 418.979 75.6902 419.129 78.88C419.252 81.499 419.368 79.5729 420.33 80.6472C424.008 84.7526 429.549 87.1246 434.172 88.4704C437.069 89.3038 439.606 91.0814 441.381 93.5216C443.155 95.9619 444.066 98.9253 443.969 101.943C443.468 117.141 443.862 141.173 441.271 158.109C436.96 186.295 476.321 227 453.777 227.837C453.834 227.925 453.866 228.028 453.869 228.133C453.872 228.239 453.847 228.343 453.795 228.435C452.186 231.446 386.253 216.471 380.725 216.471Z" fill="#E6E6E6"/>
<path d="M403.542 68.307C418.384 68.307 430.416 56.2583 430.416 41.3954C430.416 26.5326 418.384 14.4839 403.542 14.4839C388.7 14.4839 376.668 26.5326 376.668 41.3954C376.668 56.2583 388.7 68.307 403.542 68.307Z" fill="#2F2E41"/>
<path d="M405.705 70.5284C416.367 70.2258 424.766 61.3253 424.463 50.6483C424.161 39.9714 415.273 31.5613 404.611 31.8639C393.949 32.1664 385.551 41.067 385.853 51.7439C386.155 62.4208 395.043 70.8309 405.705 70.5284Z" fill="#FFB6B6"/>
<path d="M405.345 21.7014L397.516 21.9236C392.582 22.0676 387.907 24.1658 384.516 27.7579C381.126 31.3499 379.297 36.1423 379.431 41.0832L379.436 41.2568L379.578 41.3464C383.834 44.1658 388.857 45.5969 393.957 45.443L394.397 45.4305L398.723 45.2342C399.45 43.358 399.694 41.3282 399.43 39.3328C400.083 41.2243 400.593 43.1625 400.956 45.1308L420.365 44.2459C421.495 44.1898 422.557 43.6941 423.327 42.8644C424.096 42.0348 424.512 40.9368 424.484 39.8048C424.339 34.8642 422.242 30.1833 418.653 26.7892C415.065 23.3952 410.279 21.5654 405.345 21.7014Z" fill="#2F2E41"/>
<path d="M389.744 16.8486C387.977 19.0308 385.139 19.94 382.59 21.1218C378.092 23.252 374.181 26.4488 371.195 30.435C368.21 34.4212 366.24 39.0764 365.458 43.9971C364.857 48.0041 365.067 52.1284 364.05 56.047C363.04 59.9654 360.374 63.8572 356.411 64.6447C353.73 65.1819 351 64.2168 348.437 63.2602C347.027 62.7388 345.617 62.2152 344.208 61.6894C345.558 57.9953 346.906 54.3012 348.252 50.6072C346.021 54.1206 343.401 57.3717 340.444 60.2991C335.392 58.424 330.336 56.5491 325.275 54.6743C337.587 54.3718 335.148 42.4645 337.562 30.3793C338.889 23.7385 351.653 18.9052 354.003 12.5562C355.273 9.11266 357.5 6.10538 360.423 3.89026C363.346 1.67514 366.841 0.344903 370.496 0.0569967C374.15 -0.23091 377.81 0.535569 381.043 2.26571C384.276 3.99584 386.946 6.61721 388.737 9.81958C391.293 10.7562 391.478 14.6942 389.744 16.8486Z" fill="#2F2E41"/>
<path d="M390.975 24.852C396.502 24.852 400.982 20.3655 400.982 14.831C400.982 9.29661 396.502 4.81006 390.975 4.81006C385.448 4.81006 380.968 9.29661 380.968 14.831C380.968 20.3655 385.448 24.852 390.975 24.852Z" fill="#2F2E41"/>
<path d="M426.521 169.445H380.323C378.741 169.443 377.224 168.813 376.105 167.692C374.987 166.572 374.357 165.053 374.356 163.469V113.741C374.357 112.156 374.987 110.638 376.105 109.517C377.224 108.397 378.741 107.767 380.323 107.765H426.521C428.103 107.767 429.62 108.397 430.739 109.517C431.857 110.638 432.487 112.156 432.488 113.741V163.469C432.487 165.053 431.857 166.572 430.739 167.692C429.62 168.813 428.103 169.443 426.521 169.445Z" fill="#3F3D56"/>
<path d="M381.622 118.507C383.533 118.507 385.082 116.956 385.082 115.042C385.082 113.128 383.533 111.577 381.622 111.577C379.711 111.577 378.162 113.128 378.162 115.042C378.162 116.956 379.711 118.507 381.622 118.507Z" fill="#E6E6E6"/>
<path d="M381.622 117.121C382.769 117.121 383.698 116.19 383.698 115.042C383.698 113.894 382.769 112.963 381.622 112.963C380.476 112.963 379.546 113.894 379.546 115.042C379.546 116.19 380.476 117.121 381.622 117.121Z" fill="#3F3D56"/>
<path d="M396.133 167.03L364.4 158.972L359.468 175.322C359.468 175.322 393.607 177.853 394.883 177.865C395.838 179.218 397.179 180.248 398.731 180.82C400.283 181.392 401.971 181.479 403.573 181.069C405.175 180.66 406.616 179.772 407.703 178.525C408.791 177.278 409.475 175.73 409.664 174.085C409.854 172.44 409.541 170.776 408.766 169.313C407.99 167.851 406.79 166.658 405.323 165.893C403.857 165.129 402.193 164.828 400.552 165.031C398.911 165.234 397.37 165.931 396.133 167.03V167.03Z" fill="#FFB6B6"/>
<path d="M374.957 92.8848C352.331 104.992 342.415 131.983 328.534 155.703C328.247 158.295 328.503 160.918 329.287 163.405C330.07 165.892 331.363 168.187 333.082 170.145C334.802 172.103 336.911 173.68 339.274 174.775C341.637 175.871 344.202 176.46 346.805 176.506L373.962 177.133L370.558 160.353L361.475 155.185L372.211 129.176L374.957 92.8848Z" fill="#E6E6E6"/>
<path d="M408.496 119.099L430.154 145.417L421.21 159.609C421.21 159.609 399.433 125.517 398.942 124.337C397.331 123.961 395.873 123.104 394.76 121.88C393.646 120.656 392.93 119.122 392.706 117.481C392.482 115.841 392.761 114.171 393.505 112.692C394.249 111.214 395.425 109.996 396.875 109.201C398.325 108.406 399.983 108.07 401.628 108.239C403.272 108.407 404.828 109.072 406.087 110.145C407.347 111.217 408.251 112.648 408.681 114.247C409.111 115.846 409.047 117.538 408.496 119.099V119.099Z" fill="#FFB6B6"/>
<path d="M441.139 93.5583C447.676 89.9408 466.744 145.731 446.679 177.461C444.39 178.703 441.866 179.452 439.271 179.662C436.676 179.871 434.065 179.536 431.606 178.678C429.148 177.819 426.895 176.457 424.992 174.677C423.089 172.897 421.578 170.739 420.556 168.341L410.169 142.886L426.811 137.573L434.758 146.706L433.652 128.536L443.111 102.713L441.139 93.5583Z" fill="#E6E6E6"/>
<path d="M224.507 65.7912C241.693 65.7912 255.626 51.839 255.626 34.6281C255.626 17.4173 241.693 3.46509 224.507 3.46509C207.32 3.46509 193.387 17.4173 193.387 34.6281C193.387 51.839 207.32 65.7912 224.507 65.7912Z" fill="#00B0FF"/>
<path d="M238.417 29.113H210.596C209.428 29.113 208.309 29.5775 207.483 30.4044C206.657 31.2312 206.193 32.3527 206.193 33.5221V61.3821C206.193 62.5514 206.657 63.6729 207.483 64.4998C208.309 65.3266 209.428 65.7912 210.596 65.7912H238.417C239.585 65.7912 240.705 65.3266 241.531 64.4998C242.356 63.6729 242.82 62.5514 242.82 61.3821V33.5221C242.82 32.3527 242.356 31.2313 241.531 30.4044C240.705 29.5775 239.585 29.113 238.417 29.113ZM224.507 57.233C222.575 57.233 220.686 56.6593 219.08 55.5846C217.474 54.5099 216.222 52.9823 215.483 51.1951C214.744 49.4079 214.55 47.4413 214.927 45.544C215.304 43.6467 216.234 41.9039 217.6 40.536C218.966 39.1681 220.707 38.2366 222.601 37.8592C224.496 37.4818 226.46 37.6755 228.244 38.4158C230.029 39.1561 231.555 40.4097 232.628 42.0182C233.701 43.6266 234.274 45.5176 234.274 47.4521C234.274 50.0462 233.245 52.5339 231.413 54.3682C229.581 56.2025 227.097 57.233 224.507 57.233ZM235.495 37.6713C235.012 37.6713 234.54 37.5279 234.138 37.2592C233.737 36.9905 233.424 36.6086 233.239 36.1618C233.054 35.715 233.006 35.2233 233.1 34.749C233.194 34.2747 233.427 33.839 233.768 33.497C234.11 33.1551 234.545 32.9222 235.018 32.8278C235.492 32.7335 235.983 32.7819 236.429 32.967C236.875 33.1521 237.257 33.4655 237.525 33.8676C237.793 34.2697 237.937 34.7425 237.937 35.2261C237.937 35.8746 237.679 36.4965 237.221 36.9551C236.763 37.4136 236.142 37.6713 235.495 37.6713Z" fill="white"/>
<path d="M234.237 244.278C251.424 244.278 265.357 230.326 265.357 213.115C265.357 195.904 251.424 181.952 234.237 181.952C217.05 181.952 203.118 195.904 203.118 213.115C203.118 230.326 217.05 244.278 234.237 244.278Z" fill="#00B0FF"/>
<path d="M226.229 244.278C221.113 244.282 216.106 242.795 211.817 240L209.659 238.596L212.217 238.88C212.887 238.954 213.609 238.998 214.362 239.009C217.81 239.011 221.186 238.018 224.085 236.147C222.362 235.774 220.767 234.956 219.457 233.776C218.147 232.595 217.168 231.092 216.615 229.417L216.295 228.428L217.314 228.628C217.776 228.72 218.246 228.772 218.717 228.786C217.103 227.955 215.749 226.695 214.801 225.144C213.854 223.594 213.351 221.813 213.347 219.995V218.948L214.257 219.351C214.797 219.655 215.369 219.899 215.962 220.077C214.559 218.5 213.687 216.52 213.471 214.419C213.255 212.318 213.706 210.202 214.759 208.372L215.204 207.604L215.762 208.293C219.826 213.329 225.65 216.63 232.053 217.528C232.229 217.553 232.408 217.54 232.578 217.489C232.748 217.438 232.905 217.351 233.038 217.233C233.174 217.115 233.283 216.969 233.358 216.804C233.433 216.64 233.471 216.461 233.471 216.281C233.456 214.326 234.023 212.412 235.098 210.781C236.174 209.151 237.71 207.878 239.511 207.125C241.312 206.372 243.296 206.173 245.211 206.553C247.125 206.933 248.883 207.876 250.26 209.261C252.144 208.849 253.951 208.138 255.612 207.156L257.014 206.325L256.503 207.873C256.03 209.31 255.236 210.62 254.181 211.703C255.117 211.459 256.031 211.141 256.916 210.752L258.815 209.916L257.671 211.649C256.459 213.487 254.945 215.106 253.193 216.438V217.321C253.193 230.572 243.128 244.278 226.284 244.278H226.229Z" fill="white"/>
<path d="M161.525 155.035C178.712 155.035 192.645 141.082 192.645 123.872C192.645 106.661 178.712 92.7085 161.525 92.7085C144.338 92.7085 130.406 106.661 130.406 123.872C130.406 141.082 144.338 155.035 161.525 155.035Z" fill="#00B0FF"/>
<path d="M175.436 118.356H147.615C146.447 118.356 145.327 118.821 144.501 119.648C143.676 120.475 143.212 121.596 143.212 122.765V150.625C143.212 151.795 143.676 152.916 144.501 153.743C145.327 154.57 146.447 155.035 147.615 155.035H175.436C176.603 155.035 177.723 154.57 178.549 153.743C179.375 152.916 179.839 151.795 179.839 150.625V122.765C179.839 121.596 179.375 120.475 178.549 119.648C177.723 118.821 176.603 118.356 175.436 118.356ZM170.212 127.762H167.021C164.843 127.762 164.419 128.795 164.419 130.32V133.554H169.614L168.939 138.631H164.409V151.869C162.472 152.233 160.484 152.229 158.549 151.856V138.631H154.394V133.554H158.626V129.799C158.626 125.311 161.739 122.859 165.749 122.859C167.677 122.859 169.739 123.004 170.212 123.071L170.212 127.762Z" fill="white"/>
</g>
<defs>
<clipPath id="clip0_32_736">
<rect width="520" height="376" fill="white"/>
</clipPath>
</defs>
</svg>
